<svg width="310" height="435" viewBox="0 0 310 435" fill="none" xmlns="http://www.w3.org/2000/svg">
<mask id="mask0_160_1423" style="mask-type:alpha" maskUnits="userSpaceOnUse" x="0" y="0" width="310" height="435">
<rect width="310" height="435" rx="18" fill="#BFE2DA"/>
</mask>
<g mask="url(#mask0_160_1423)">
<rect width="310" height="435" rx="18" fill="#BFE2DA"/>
<path d="M70.0383 310.808C68.6656 306.594 67.3183 302.369 65.9295 298.167C63.4716 290.703 61.2826 283.132 57.3313 276.27C54.2142 270.857 50.8233 265.645 45.533 262.013C37.7201 256.654 30.2918 257.653 24.0677 264.762C18.8295 270.747 16.8285 277.868 16.5491 285.584C16.1588 296.545 18.5898 307.076 22.0419 317.352C24.6231 325.04 27.8021 332.528 30.6803 340.113C31.2331 341.561 31.6549 343.055 32.1421 344.527C31.9251 344.637 31.7096 344.737 31.498 344.844C30.1579 342.394 28.843 339.934 27.4668 337.503C24.126 331.583 20.9757 325.54 17.2984 319.826C15.684 317.33 13.1901 315.225 10.7198 313.467C3.70153 308.434 -4.99501 310.499 -9.31718 318.02C-12.3571 323.314 -13.1161 329.165 -12.8334 335.125C-12.2379 347.414 -8.78577 358.915 -3.16991 369.859C3.67648 383.213 11.6805 395.941 20.7504 407.897C21.7537 409.274 22.6861 410.702 23.5441 412.174C24.997 414.541 24.9612 415.437 22.9391 417.323C19.5311 420.487 16.0121 423.534 12.5473 426.631C8.41175 430.348 4.22983 434.023 0.184035 437.839C-0.871989 438.912 -1.72225 440.169 -2.32462 441.549C-3.94532 444.97 -2.02888 448.303 1.72305 448.058C4.38482 447.891 6.96538 447.076 9.24059 445.685C14.4586 442.315 19.3635 438.463 24.387 434.772C27.8712 432.206 31.3385 429.595 34.7986 427.031C35.3355 426.635 35.8702 426.316 36.6481 425.809C38.0279 427.683 39.3405 429.466 40.6921 431.211C50.1917 443.406 62.4194 453.203 76.3923 459.814C84.877 463.825 93.7759 465.138 102.96 462.375C108.193 460.753 112.853 457.668 116.392 453.486C121.345 447.843 121.627 440.929 117.576 434.19C113.315 427.018 106.616 421.617 98.7034 418.974C94.2155 417.376 89.4789 416.442 84.9299 414.965C81.1495 413.732 77.4653 412.181 73.7575 410.721C72.1695 410.094 72.0213 408.903 73.2106 407.854C74.3999 406.804 75.7554 405.508 77.199 405.264C80.4031 404.657 83.6714 404.459 86.9253 404.677C94.0232 405.321 101.074 406.745 108.183 407.19C113.602 407.528 119.041 407.303 124.413 406.517C131.191 405.525 136.763 401.927 140.8 396.288C147.478 386.974 141.998 375.698 134.12 371.994C130.268 370.097 125.92 369.451 121.683 370.148C116.002 371.102 110.365 372.329 104.674 373.224C101.783 373.682 98.8538 373.848 95.9299 373.718C94.7223 373.663 93.0156 372.718 92.5178 371.693C91.7317 370.086 92.6382 368.292 94.093 367.221C95.2616 366.279 96.6151 365.592 98.0658 365.206C104.657 363.814 111.274 362.53 117.915 361.354C126.439 359.831 134.897 358.173 142.761 354.303C150.136 350.669 156.416 345.863 160.73 338.678C162.568 335.646 163.704 332.24 164.055 328.711C165.028 319.093 156.239 309.833 146.235 310.774C138.537 311.474 131.651 314.334 124.924 317.814C119.631 320.543 114.447 323.475 109.121 326.138C107.219 327.011 105.209 327.627 103.145 327.972C100.908 328.41 99.7808 327.137 100.851 325.173C102.3 322.481 104.066 319.971 106.111 317.698C111.343 311.941 117.171 306.689 122.07 300.671C131.131 289.544 135.848 276.655 135.501 262.164C135.329 255.07 133.611 248.353 129.602 242.279C123.215 232.616 112.56 228.58 101.89 233.025C84.7779 240.144 74.1154 252.649 72.8764 271.779C72.2171 281.778 72.2148 291.816 71.8129 301.817C71.6935 304.803 71.1769 307.767 70.8403 310.739L70.0383 310.808Z" fill="#AACDC5"/>
<path d="M226.706 54.4256C229.804 54.5922 232.905 54.7916 236.006 54.9717L236.166 54.4306C234.312 53.4519 232.509 52.358 230.591 51.5176C224.166 48.7016 217.615 46.137 211.257 43.1533C199.088 37.4599 193.649 27.3076 193.372 14.3209C193.228 7.7527 196.724 2.61493 202.284 4.06419e-05L221.5 4.10242e-05C231.047 3.4741 237.727 9.66781 242.676 18.4229C245.353 23.1575 247.292 28.3023 249.714 33.1874C250.675 35.1023 251.862 36.8955 253.25 38.5286C254.258 39.7289 255.377 39.318 255.662 37.7467C255.964 36.3112 256.075 34.842 255.991 33.3774C255.613 29.2219 255.024 25.0891 254.593 20.9378C254.04 15.6585 256.991 5.20297 258.5 4.1158e-05L274.5 3.97762e-05C278.088 4.65014 282.475 12.8718 282.964 18.6135C283.482 24.7344 282.404 30.6781 281.222 36.6304C280.293 41.2651 279.442 45.9114 278.668 50.5693C278.549 51.6147 278.651 52.6733 278.968 53.6766C279.296 54.8997 280.235 55.9493 281.485 55.8467C282.28 55.7834 283.333 54.911 283.678 54.1368C284.509 52.2614 285.149 50.3073 285.588 48.3037C286.457 44.3606 287.095 40.3681 287.923 36.4166C288.551 33.4736 290.082 30.8003 292.304 28.7704C296.734 24.5746 305.626 24.2628 310 30.9999L310 51.4999C308.653 54.6863 303.817 63.4509 301.584 67.9191C300.612 69.9874 299.906 72.171 299.484 74.4173C299.274 75.4217 299.774 76.6373 300.156 77.6816C300.537 78.7259 301.352 78.9332 302.167 78.0569C304.067 76.0097 308.23 70.6527 310 68.5L310 103.5C308.516 103.936 304.114 105.708 302.539 106.13C302.671 106.767 302.743 107.198 302.864 107.649C303.654 110.562 304.473 113.492 305.258 116.421C306.384 120.643 307.646 124.827 308.513 129.094C308.84 130.934 308.713 132.826 308.142 134.606C307.344 137.118 304.679 137.517 302.86 135.586C302.114 134.841 301.51 133.965 301.079 133.001C299.622 129.386 298.291 125.718 296.921 122.07C295.784 119.018 294.694 115.943 293.5 112.911C292.785 111.109 292.209 110.857 290.293 111.201C289.113 111.385 287.944 111.629 286.788 111.932C276.669 114.799 266.318 116.773 255.854 117.832C247.277 118.703 238.889 118.019 230.716 115.27C226.754 113.932 223.129 111.943 220.45 108.607C216.644 103.865 217.517 97.6622 222.595 94.3667C224.373 93.2033 226.384 92.1131 228.425 91.6968C233.093 90.7556 237.842 90.2426 242.559 89.5738C244.497 89.2963 246.438 89.0663 248.379 88.8171C248.364 88.6519 248.353 88.4855 248.337 88.3158C247.252 88.2581 246.169 88.1517 245.083 88.1428C239.397 88.0844 233.698 88.2473 228.021 87.9689C220.433 87.5981 212.938 86.4957 205.884 83.442C200.919 81.2894 196.783 78.1651 194.214 73.2179C191.163 67.3403 192.408 62.237 197.901 58.5062C201.622 55.9805 205.89 55.0983 210.219 54.4461C215.706 53.6192 221.207 54.1238 226.706 54.4256Z" fill="#AACDC5"/>
</g>
</svg>
