<svg width="338" height="598" viewBox="0 0 338 598" fill="none" xmlns="http://www.w3.org/2000/svg">
<rect width="338" height="598" rx="25" fill="#B1A1F1"/>
<path d="M222.489 368.655C221.741 361.566 222.822 354.619 223.848 347.657C225.092 339.094 227.183 330.69 228.777 322.201C229.73 317.172 230.314 312.051 230.808 306.954C231.193 303.149 231.221 299.156 231.275 295.294C231.44 289.617 231.044 283.935 230.095 278.337C229.595 275.623 229.653 272.801 229.297 270.06C228.695 265.214 227.947 260.376 227.253 255.535L227.211 254.8C226.6 249.16 226.079 243.515 225.323 237.883C224.509 232.791 224.047 227.647 223.939 222.489C223.971 215.98 223.929 209.476 224.652 202.947C225.162 197.959 225.927 193.003 226.942 188.101C229.224 176.365 233.814 165.255 240.424 155.463C243.127 151.644 246.142 148.075 249.435 144.795C251.517 142.652 253.998 141.112 256.046 139.01C256.804 138.248 258.074 138.498 258.654 137.803C260.801 135.203 264.211 134.953 266.685 132.977C266.949 132.718 267.282 132.548 267.641 132.488C269.423 132.16 271.14 131.533 272.726 130.63C279.57 128.095 286.824 126.945 294.096 127.242C298.423 127.283 302.733 127.845 306.94 128.915C311.718 130.359 316.332 132.342 320.697 134.831C327.839 138.698 333.989 144.284 338.632 151.121C342.579 156.729 345.759 162.877 348.082 169.387C349.999 174.854 351.535 180.456 352.675 186.15C353.16 188.6 353.502 191.097 353.848 193.649C354.88 200.233 355.561 206.869 355.886 213.527C356.129 217.807 356.372 222.087 356.722 226.342C357.166 230.951 357.773 235.551 358.598 240.139C359.072 242.722 359.439 245.33 359.896 247.934C361.268 255.467 363.169 262.889 365.582 270.139C368.548 279.197 372.037 288.064 376.03 296.69C378.725 302.458 381.527 308.2 384.292 313.907C388.405 322.335 391.487 331.26 393.466 340.473C393.683 341.716 393.827 342.972 393.898 344.232C394 345.861 394.22 347.479 394.555 349.075C394.851 350.305 394.966 351.574 394.896 352.839C394.957 359.217 394.415 365.583 393.279 371.846C392.56 374.894 391.802 377.907 390.841 380.874C388.796 387.196 386.086 393.261 382.762 398.962C379.519 404.51 375.854 409.779 371.799 414.716C367.827 419.606 363.3 423.978 358.315 427.738C355.826 429.771 353.25 431.563 350.756 433.501C348.006 435.713 345.144 437.769 342.182 439.663C338.383 442.107 334.311 444.066 330.056 445.495C325.779 446.835 321.303 447.222 316.965 448.13C313.55 448.929 310.067 449.164 306.648 449.888C301.545 451.033 296.266 451.075 291.138 450.011C285.785 448.99 280.547 447.385 275.514 445.223C271.656 443.399 267.927 441.29 264.356 438.914C259.162 435.654 254.263 431.912 249.717 427.733C244.841 423.174 240.622 417.909 237.193 412.101C235.169 408.528 232.966 405.021 231.279 401.277C228.02 394.532 225.509 387.427 223.794 380.1C223.131 376.316 222.695 372.493 222.489 368.655Z" fill="#A294DC"/>
<path d="M31.0808 458.271C31.2987 457.493 31.3625 456.681 31.2686 455.878C31.1475 449.364 31.1311 442.846 30.8095 436.348C30.5662 430.444 30.7038 424.531 31.2213 418.646C31.3345 416.953 31.5857 415.271 31.9723 413.619C32.3106 411.999 33.0094 410.478 34.0172 409.167C35.0249 407.856 36.3155 406.79 37.7929 406.047C39.2894 405.252 40.8941 404.68 42.5565 404.349C45.0909 403.894 47.5896 403.237 50.0794 402.732C53.9259 401.982 57.8439 401.657 61.7627 401.765C63.5399 401.942 65.25 402.541 66.7516 403.51C67.0159 403.679 67.2436 403.899 67.421 404.158C67.5984 404.417 67.7219 404.709 67.7841 405.016C68.0126 405.884 68.0851 406.786 67.9982 407.679C67.904 410.904 67.3198 414.06 66.9239 417.247C66.5279 420.434 66.0394 423.416 65.7135 426.541C65.0907 432.298 64.8565 438.069 64.0333 443.843C64.0191 443.931 64.0203 444.021 64.0367 444.109C64.1465 444.338 64.2912 444.549 64.4655 444.734C64.5101 444.784 64.8118 444.66 64.9142 444.533C65.1509 444.272 65.3616 443.989 65.5433 443.687C68.0984 439.804 70.2949 435.719 72.5927 431.687C77.5661 423.013 82.5146 414.331 87.4383 405.641C88.7243 403.398 90.2323 401.29 91.9396 399.349C93.144 398.019 94.689 397.045 96.4079 396.531C98.4918 395.652 100.837 395.616 102.949 396.431C103.186 396.556 103.447 396.631 103.715 396.649C106.765 396.472 109.411 397.838 112.154 398.849C113.315 399.289 114.445 399.794 115.606 400.235C118.358 401.28 120.942 402.723 123.277 404.516C125.577 406.235 127.372 408.542 128.47 411.195C129.947 414.876 130.117 418.95 128.952 422.737C127.908 426.701 126.34 430.508 124.289 434.055C122.846 436.467 121.296 438.757 119.693 440.988C116.889 444.894 113.804 448.584 110.656 452.223C106.997 456.457 103.059 460.437 99.69 464.918C100.189 465.48 100.737 465.209 101.211 465.057C104.417 464.006 107.692 463.073 110.838 461.895C115.022 460.371 119.155 458.73 123.288 457.089C124.767 456.491 126.325 456.111 127.914 455.962C128.615 455.888 129.325 455.965 129.995 456.187C130.665 456.409 131.28 456.772 131.799 457.251C132.831 458.121 133.623 459.241 134.097 460.505C135.079 463.19 135.854 465.946 136.415 468.748C136.764 470.413 137.065 472.084 137.307 473.789C137.889 476.392 137.549 479.115 136.346 481.493C135.142 483.87 133.15 485.755 130.71 486.824C129.458 487.432 128.19 488.163 126.893 488.741C123.627 490.152 120.253 491.298 116.803 492.169C112.586 493.292 108.304 494.24 104.056 495.248C103.612 495.276 103.188 495.439 102.841 495.716C103.527 496.281 104.29 496.746 105.106 497.097L119.399 501.512C119.578 501.534 119.754 501.577 119.924 501.639C121.522 502.433 123.249 502.937 125.023 503.124C125.531 503.22 126.023 503.387 126.485 503.621C127.45 504.003 128.263 504.692 128.8 505.58C129.336 506.469 129.566 507.509 129.455 508.541C129.319 510.038 129.013 511.514 128.541 512.941C126.662 518.142 124.409 523.2 121.801 528.076C119.695 531.92 116.219 533.372 112.168 533.935C108.979 534.379 105.758 533.739 102.563 534.116C100.542 533.272 98.304 533.859 96.2694 533.081C95.0659 532.751 93.844 532.494 92.6102 532.309C91.5753 532.087 90.5578 531.791 89.5656 531.422C88.9422 531.069 88.2089 530.964 87.5121 531.127C86.8941 531.299 86.138 530.912 85.432 530.802C85.3495 530.809 85.2699 530.836 85.1996 530.879C85.1294 530.923 85.0705 530.983 85.0278 531.054C84.9972 531.132 84.9873 531.218 84.999 531.302C85.0107 531.386 85.0437 531.465 85.0948 531.533C86.1558 532.478 87.3137 533.309 88.5493 534.011C92.084 536.258 95.6087 538.513 99.1735 540.732C100.796 541.849 102.215 543.236 103.369 544.833C103.769 545.316 104.044 545.889 104.17 546.503C104.297 547.117 104.27 547.752 104.093 548.353C103.587 550.347 102.83 552.268 101.839 554.069C99.6569 557.848 97.1779 561.447 94.4253 564.831C92.2186 567.634 89.886 570.314 87.5078 572.964C87.2789 573.235 87.0886 573.537 86.9423 573.861C86.4581 574.721 85.6998 575.394 84.7879 575.773C82.4056 577.022 79.7377 577.627 77.0478 577.529C73.6413 577.418 70.2722 576.776 67.0623 575.625C59.393 572.905 51.9554 569.568 44.8222 565.648C36.9777 561.413 29.2113 556.983 21.4203 552.647C21.0349 552.415 20.6696 552.165 20.2631 551.969C20.1333 551.877 19.985 551.815 19.8285 551.786C19.672 551.758 19.5111 551.764 19.3574 551.805C19.2037 551.845 19.0609 551.919 18.939 552.021C18.8171 552.123 18.7191 552.25 18.6519 552.394C17.7234 553.811 16.8405 555.259 15.9398 556.686C11.6959 563.397 7.45233 570.101 3.20912 576.798C0.234349 581.521 -2.82834 586.285 -5.80534 591.046C-11.0468 599.431 -16.2617 607.847 -21.4942 616.242C-21.7258 616.627 -21.9941 616.991 -22.2646 617.393C-23.1987 618.904 -24.2007 620.278 -26.311 619.334C-28.4868 619.991 -29.841 618.788 -31.0706 617.242C-31.8992 616.308 -32.7367 615.365 -33.5653 614.431C-34.2954 613.633 -34.7796 612.642 -34.9597 611.576C-35.1399 610.51 -35.0082 609.415 -34.5806 608.423C-34.1426 607.257 -33.6317 606.121 -33.051 605.019C-30.2937 600.335 -27.5027 595.668 -24.6779 591.019C-22.5347 587.519 -20.3371 584.061 -18.1305 580.612C-14.5746 575.051 -10.8271 569.625 -6.99828 564.27C-3.01698 558.69 0.974718 553.095 4.9768 547.484C5.54573 546.692 6.24275 545.984 6.77492 545.17C7.30709 544.357 7.23455 543.973 6.38372 543.418C4.15195 541.953 1.87009 540.533 -0.37169 539.078C-4.59757 536.411 -8.66723 533.505 -12.5607 530.372C-16.14 527.43 -19.8118 524.605 -23.164 521.353C-25.0963 519.479 -27.0988 517.668 -29.0176 515.89C-31.3256 513.643 -33.4667 511.231 -35.4238 508.673C-36.9411 507.021 -38.0745 505.055 -38.7429 502.915C-39.4214 500.151 -39.8599 497.334 -40.0536 494.495C-40.0938 492.429 -39.6147 490.387 -38.6602 488.557C-36.5419 484.125 -33.8665 479.983 -30.6988 476.231C-28.5422 473.635 -26.3389 471.051 -24.1467 468.495C-22.9732 467.112 -21.2517 466.428 -19.8532 465.258C-19.6387 465.101 -19.3748 465.026 -19.1094 465.046C-17.0381 465.361 -14.83 465.447 -13.1572 467.049C-12.979 467.25 -12.8008 467.45 -12.6226 467.651C-9.86953 470.591 -6.84583 473.291 -3.88453 475.92C-3.43729 476.354 -3.02328 476.82 -2.64606 477.316C-0.671407 479.762 1.91895 481.59 4.08179 483.906C5.07105 484.807 6.12402 485.636 7.2324 486.385C6.27454 484.903 5.6697 483.878 4.98584 482.906C3.53795 480.871 1.97199 478.905 0.622083 476.819C-0.727836 474.734 -2.5009 472.413 -4.02787 470.269C-5.46798 468.263 -6.76773 466.133 -8.4038 464.229C-10.5775 461.619 -12.3829 458.723 -13.769 455.622C-15.5501 451.819 -14.4827 447.874 -11.3897 444.86C-9.7348 443.333 -7.90673 442.005 -5.94274 440.904C-1.48773 438.281 3.10072 435.891 7.80418 433.744C8.68383 433.322 9.64818 433.076 10.5624 432.713C12.3176 432.081 14.2348 432.053 16.0098 432.634C17.2655 432.923 18.4292 433.523 19.3946 434.378C20.3599 435.232 21.0961 436.315 21.5359 437.527C23.7849 442.583 26.1608 447.581 28.1269 452.763C28.4811 453.687 28.8454 454.602 29.0772 455.509C29.3309 456.556 29.8699 457.512 30.6343 458.272C30.5542 458.505 30.465 458.727 30.8637 458.733L31.0808 458.271Z" fill="#A294DC"/>
<circle cx="68.5" cy="45.5" r="79.5" fill="#A294DC"/>
</svg>
