<svg width="338" height="598" viewBox="0 0 338 598" fill="none" xmlns="http://www.w3.org/2000/svg">
<rect width="338" height="598" rx="25" fill="#A1A9F1"/>
<path d="M309.396 176.917C325.841 178.415 327.141 172.47 338 160V27C330.248 6.44954 327.003 -0.750083 309 3.38778e-05C295.693 5.55316 279.931 0.185077 267.441 7.39685C254.946 14.6111 250.776 30.2371 240.475 40.3506C225.516 55.0382 201.336 60.8717 193.253 80.2347C184.716 100.686 178.742 132.407 196.572 145.526C218.011 161.301 249.197 133.125 274.824 140.255C291.269 144.83 292.398 175.368 309.396 176.917Z" fill="#8E97E3"/>
<path d="M17.8254 480.374C28.4045 485.158 39.2141 489.053 51.1893 489.884C61.8979 492.018 72.8224 490.844 83.6605 488.452C89.0518 487.269 94.2107 485.213 98.9316 482.365C105.365 478.455 111.214 473.662 116.304 468.13C122.798 460.912 128.355 452.91 132.842 444.313C137.215 436.27 140.051 427.491 141.205 418.419C142.12 411.37 142.246 404.242 141.579 397.166C140.6 387.168 138.276 377.346 134.67 367.964C132.265 362.036 129.427 356.292 126.178 350.778C122.221 343.765 117.152 337.435 111.166 332.031C108.098 329.406 104.557 327.384 100.731 326.073C98.4867 325.212 96.0778 324.861 93.68 325.044C91.2821 325.228 88.9558 325.941 86.8702 327.133C81.8382 329.861 77.7687 334.06 75.2115 339.163C71.5269 346.61 70.8504 354.63 70.5769 362.622C70.2747 371.516 70.8361 380.438 70.9944 389.36C70.932 393.208 69.7466 396.955 67.583 400.145C67.429 400.374 67.2254 400.566 66.9871 400.707C66.7487 400.848 66.4816 400.934 66.2056 400.958C65.9295 400.983 65.6515 400.946 65.3917 400.85C65.1319 400.754 64.897 400.601 64.7044 400.402C63.6108 399.171 62.748 397.755 62.1568 396.221C59.0766 390.134 57.522 383.517 55.6077 377.058C51.8079 363.968 46.9718 351.408 39.7752 339.822C37.0876 335.445 33.538 331.655 29.34 328.679C27.3916 327.124 25.0132 326.196 22.5215 326.02C20.0299 325.843 17.5433 326.426 15.3931 327.691C12.3389 329.4 9.87929 331.992 8.3405 335.124C5.5482 340.466 5.11641 346.352 5.46185 352.196C5.92652 358.383 6.96226 364.515 8.55626 370.513C9.92362 375.998 10.9312 381.569 11.8956 387.14C12.7661 391.629 12.8244 396.237 12.0681 400.746C11.7801 402.553 11.0099 404.249 9.83745 405.658C9.5989 406.01 9.27704 406.298 8.90062 406.497C8.5242 406.696 8.10472 406.8 7.67846 406.8C7.2522 406.8 6.83237 406.696 6.45595 406.497C6.07953 406.298 5.75803 406.01 5.51947 405.658C4.03299 403.579 0.684645 394.959 0 392.5V471.5C7.0302 475.806 10.2507 477.109 17.8254 480.374Z" fill="#8E97E3"/>
</svg>
