<svg width="338" height="598" viewBox="0 0 338 598" fill="none" xmlns="http://www.w3.org/2000/svg">
<rect width="338" height="598" rx="25" fill="#CBD1F3"/>
<path d="M277.106 561.368C278.812 563.041 280.905 563.338 282.985 563.574C287.835 564.129 292.513 563.119 297.181 561.943C304.927 560 312.612 557.689 320.465 556.388C331.394 554.584 342.375 554.694 353.063 558.279C357.48 559.641 361.55 561.942 364.996 565.024C373.739 573.175 374.221 585.009 366.365 594.231C354.674 607.937 339.821 616.208 322.485 620.318C297.061 626.343 271.469 626.396 245.764 622.203C235.105 620.475 224.642 617.698 214.527 613.914C201.889 609.168 190.888 601.866 183.184 590.305C176.607 580.483 172.635 569.152 171.641 557.377C169.271 531.752 172.282 506.813 181.644 482.854C186.408 470.663 193.21 459.647 203.267 450.951C207.002 447.613 211.536 445.297 216.431 444.227C229.826 441.4 236.313 452.706 234.058 461.778C232.621 467.554 230.234 473.12 227.859 478.62C224.793 485.703 221.235 492.576 218.064 499.624C216.537 502.826 216.028 506.418 216.604 509.919C216.929 510.925 217.382 511.885 217.953 512.774C218.866 512.4 219.731 511.916 220.528 511.333C224.434 507.68 226.765 502.959 229.177 498.31C233.028 490.883 236.231 483.06 240.765 476.041C248.231 464.455 258.725 456.583 272.618 453.971C279.478 452.678 286.192 452.895 292.693 455.884C303.307 460.77 307.039 472.458 301.2 482.607C296.87 490.151 290.799 496.157 284.409 501.884C276.372 509.078 268.109 516.03 260.18 523.335C257.098 526.383 254.277 529.685 251.748 533.205C251.003 534.18 251.057 535.776 250.741 537.091C252.001 537.362 253.289 537.479 254.577 537.439C260.474 536.534 265.32 533.434 269.805 529.772C276.531 524.283 282.981 518.446 289.791 513.074C301.839 503.58 315.479 499.021 330.931 500.918C337.831 501.754 343.61 504.841 347.622 510.687C351.871 516.824 351.339 523.883 346.519 529.614C342.267 534.679 336.823 538.063 331.002 540.928C321.368 545.669 311.031 548.386 300.772 551.343C295.189 552.949 289.652 554.712 284.163 556.634C280.381 557.902 278.563 559.386 277.106 561.368Z" fill="#B9BFE6"/>
<path fill-rule="evenodd" clip-rule="evenodd" d="M163.634 107.131C158.518 119.755 139.41 118.202 128.544 126.419C116.615 135.439 111.589 152.97 97.2752 157.312C82.0421 161.932 66.3862 154.259 51.0687 149.918C30.1653 143.994 4.61075 144.501 -8.64878 127.291C-22.0354 109.917 -25.7145 82.7463 -15.726 63.2263C-5.67012 43.5746 21.5973 42.2421 40.6122 31.0231C52.4481 24.0398 63.5976 17.495 74.9381 9.73372C92.266 -2.12522 103.91 -24.6524 124.82 -26.6072C146.482 -28.6322 177.18 -21.301 183.148 -0.382156C190.214 24.3831 156.579 43.2506 151.98 68.5869C149.534 82.0647 168.779 94.4357 163.634 107.131Z" fill="#B9BFE5"/>
</svg>
