<svg width="357" height="212" viewBox="0 0 357 212" fill="none" xmlns="http://www.w3.org/2000/svg">
<mask id="mask0_336_1329" style="mask-type:alpha" maskUnits="userSpaceOnUse" x="0" y="0" width="357" height="212">
<rect width="357" height="212" rx="20" fill="#C5B6E7"/>
</mask>
<g mask="url(#mask0_336_1329)">
<rect width="357" height="212" rx="20" fill="#C5B6E7"/>
<path fill-rule="evenodd" clip-rule="evenodd" d="M343 212H152.201C146.578 189.915 141.72 162.254 159.036 158.336C174.124 154.923 182.919 160.999 188.309 164.723C191.178 166.705 193.083 168.021 194.459 166.886C195.392 166.802 196.697 163.667 194.459 151.799C194.423 151.607 194.386 151.411 194.349 151.212C191.492 136.077 185.167 102.564 205.18 106.287C216.659 108.422 221.191 116.845 224.612 123.203C227.234 128.075 229.203 131.735 233.146 130.426C237.013 129.142 239.108 124.308 241.173 119.545C243.96 113.113 246.692 106.811 253.654 109.555C260.859 112.396 262.957 123.59 264.551 132.096C265.638 137.897 266.491 142.448 268.57 142.244C270.466 142.058 272.139 138.019 274.144 133.181C277.558 124.939 281.933 114.378 290.01 116.596C296.789 118.458 299.331 132.98 301.739 146.733C303.883 158.985 305.921 170.626 310.752 172.166C314.953 173.505 318.059 172.355 320.838 171.325C324.844 169.84 328.172 168.607 333.125 175.435C336.964 180.728 341.633 195.92 343 212Z" fill="#444089" fill-opacity="0.1"/>
</g>
</svg>
