<svg width="338" height="635" viewBox="0 0 338 635" fill="none" xmlns="http://www.w3.org/2000/svg">
<rect width="338" height="635" rx="25" fill="#CCBDEE"/>
<path d="M-101.321 577.48C-82.7975 592.469 -60.8628 606.868 -37.9961 614.5C2.59316 627.451 45.4549 610.993 64.9464 574.4L64.2794 575.125C70.8208 563.288 75.802 549.307 80.5603 540.694C93.4518 516.535 99.8609 490.578 103.983 464.08C105.776 452.001 108.716 413.128 90.5426 412.243C72.3694 411.359 23.7356 504.415 19.0309 540.022C7.25532 526.013 0.126114 507.37 -11.0501 493.068C-22.2263 478.767 -36.6803 455.871 -54.7824 451.401C-92.4598 442.315 -45.3857 556.047 -44.9103 557.288C-62.3596 543.318 -78.7862 533.93 -98.778 524.492C-110.815 519.129 -158.164 495.932 -148.675 530.043C-143.176 550.057 -116.59 565.521 -101.321 577.48Z" fill="#B6A5E8"/>
<path fill-rule="evenodd" clip-rule="evenodd" d="M280.017 376.496C298.041 374.225 318.639 379.766 331.31 392.772C344.31 406.116 335.367 431.274 347.311 445.569C359.67 460.363 394.464 453.349 397.779 472.331C401.198 491.909 363.895 497.931 359.853 517.39C355.682 537.465 383.66 556.745 376.269 575.872C369.775 592.677 346.034 596.343 328.233 599.213C311.954 601.838 295.308 597.556 280.017 591.39C267.222 586.231 261.134 568.726 247.493 566.657C225.644 563.343 201.98 587.601 182.794 576.645C166.975 567.611 171.269 541.912 172.337 523.739C173.292 507.491 186.643 494.494 188.572 478.333C190.793 459.724 174.403 438.855 184.364 422.975C193.932 407.723 218.396 412.834 234.598 404.961C250.874 397.052 262.06 378.759 280.017 376.496Z" fill="#B6A5E8"/>
<path fill-rule="evenodd" clip-rule="evenodd" d="M94.695 572C107.357 571.97 117.829 581.886 121.239 594.415C124.262 605.52 117.92 616.527 108.537 622.852C100.482 628.283 90.4257 626.151 82.4908 620.536C73.7201 614.33 65.8634 605.135 68.5273 594.541C71.6751 582.022 82.1109 572.03 94.695 572Z" fill="#B6A5E8"/>
</svg>
