<svg width="357" height="465" viewBox="0 0 357 465" fill="none" xmlns="http://www.w3.org/2000/svg">
<rect width="357" height="465" rx="20" fill="#A5DCDF"/>
<circle cx="333" cy="214" r="19" fill="#90BACC"/>
<circle cx="55" cy="342" r="19" fill="#90BACC"/>
<path d="M87.8348 354.109C23.4034 367.614 64 461 71.5 465H338C352.021 462.044 356.048 456.432 357 440V278.564C345.572 294.084 339.606 320.181 332.051 320.868C320.619 321.906 325.815 263.213 298.796 253.344C271.776 243.475 273.335 290.222 253.07 296.455C232.806 302.688 235.923 254.383 190.717 246.592C145.511 238.801 160.58 309.96 166.815 340.605C171.804 365.121 168.894 371.596 166.815 371.769C157.982 378.522 139.38 343.306 87.8348 354.109Z" fill="#90BACC"/>
<circle cx="293.5" cy="123.5" r="26.5" fill="#90BACC"/>
</svg>
