<svg width="243" height="135" viewBox="0 0 243 135" fill="none" xmlns="http://www.w3.org/2000/svg">
<path d="M40.4173 107.79C40.2959 107.79 40.1746 107.706 40.0533 107.538C39.5959 106.847 39.2226 106.11 38.9333 105.326C38.6533 104.533 38.3499 103.744 38.0233 102.96C37.7339 103.707 37.4259 104.453 37.0993 105.2C36.7819 105.947 36.3993 106.67 35.9513 107.37C35.7833 107.566 35.6246 107.664 35.4753 107.664C35.2979 107.664 35.1346 107.538 34.9853 107.286C33.9959 104.635 33.1466 102.125 32.4373 99.754C32.4559 99.614 32.5073 99.4833 32.5913 99.362C32.7033 99.2687 32.8386 99.222 32.9973 99.222H33.0813L33.3613 99.362C34.4626 102.573 35.1859 104.729 35.5312 105.83C35.9886 105.046 36.3666 104.243 36.6653 103.422C36.9733 102.601 37.2533 101.77 37.5053 100.93C37.6359 100.706 37.7806 100.594 37.9393 100.594C38.0979 100.594 38.2706 100.725 38.4573 100.986C38.7373 101.807 39.0406 102.624 39.3673 103.436C39.6939 104.248 40.0206 105.065 40.3473 105.886C41.4486 103.786 42.2746 101.546 42.8253 99.166C42.9279 99.0727 43.0633 99.026 43.2313 99.026H43.3153L43.5813 99.166C43.6839 99.3153 43.7353 99.4787 43.7353 99.656L43.7213 99.81C43.4319 101.163 43.0306 102.479 42.5173 103.758C42.0039 105.027 41.4346 106.287 40.8093 107.538C40.6786 107.706 40.5479 107.79 40.4173 107.79ZM47.5605 107.944C47.2525 107.925 46.9679 107.841 46.7065 107.692C46.0439 107.319 45.6332 106.763 45.4745 106.026C45.3812 105.587 45.3345 105.046 45.3345 104.402C45.3345 103.823 45.4139 103.347 45.5725 102.974C45.7312 102.601 45.9319 102.302 46.1745 102.078C46.4265 101.845 46.6692 101.7 46.9025 101.644C47.0705 101.597 47.2525 101.574 47.4485 101.574C47.5139 101.574 47.6305 101.583 47.7985 101.602C47.9665 101.611 48.2185 101.803 48.5545 102.176C48.8905 102.549 49.1192 102.993 49.2405 103.506C49.3712 104.01 49.4365 104.575 49.4365 105.2C49.4365 105.835 49.3759 106.301 49.2545 106.6C49.1425 106.889 48.9139 107.183 48.5685 107.482C48.2232 107.771 47.8872 107.925 47.5605 107.944ZM47.4205 106.81L47.7845 106.782C48.2419 106.465 48.4705 105.928 48.4705 105.172C48.4705 104.911 48.3959 104.481 48.2465 103.884C48.0319 103.072 47.7285 102.666 47.3365 102.666C47.0379 102.666 46.7719 102.927 46.5385 103.45C46.3985 103.777 46.3285 104.192 46.3285 104.696C46.3285 104.817 46.3379 104.943 46.3565 105.074C46.3752 105.195 46.4172 105.41 46.4825 105.718C46.5479 106.026 46.6832 106.287 46.8885 106.502C47.1032 106.707 47.2805 106.81 47.4205 106.81ZM47.3225 101.084C47.0612 100.935 46.8232 100.771 46.6085 100.594L46.1745 100.174C46.1372 100.109 46.1185 100.034 46.1185 99.95C46.1185 99.8847 46.1372 99.824 46.1745 99.768L46.4685 99.712C46.7392 100.001 47.0659 100.258 47.4485 100.482L48.2325 99.824H48.4565C48.5499 99.8987 48.5965 99.9873 48.5965 100.09L48.5825 100.202C48.0785 100.687 47.6585 100.981 47.3225 101.084Z" fill="#034F97"/>
<path d="M61.7678 107.972H61.6838L61.4038 107.832C61.3011 107.692 61.2498 107.519 61.2498 107.314C61.3338 106.997 61.3805 106.665 61.3898 106.32C61.3991 105.975 61.4038 105.629 61.4038 105.284C61.4038 104.547 61.1611 103.991 60.6758 103.618C60.5265 103.515 60.3585 103.464 60.1718 103.464C59.6771 103.464 59.1825 103.758 58.6878 104.346C57.9878 105.195 57.6378 105.895 57.6378 106.446V106.684C57.6378 106.992 57.5911 107.277 57.4978 107.538C57.3858 107.631 57.2505 107.678 57.0918 107.678H57.0078L56.7278 107.538C56.5878 107.174 56.4898 106.787 56.4338 106.376L56.1258 99.362C56.1725 98.998 56.3731 98.816 56.7278 98.816H56.8118L57.0918 98.956C57.1758 99.0587 57.2178 99.1893 57.2178 99.348L57.4418 104.192C58.3098 102.988 59.1778 102.386 60.0458 102.386C60.2325 102.386 60.5031 102.423 60.8578 102.498C61.2218 102.573 61.5298 102.787 61.7818 103.142C62.0431 103.487 62.2205 103.819 62.3138 104.136C62.4071 104.453 62.4538 104.915 62.4538 105.522C62.4538 105.578 62.4491 105.797 62.4398 106.18C62.4305 106.563 62.4165 106.885 62.3978 107.146C62.3791 107.407 62.3045 107.636 62.1738 107.832C62.0618 107.925 61.9265 107.972 61.7678 107.972ZM67.1772 108.084C66.1785 108.047 65.3478 107.627 64.6852 106.824C64.1718 106.217 63.9152 105.349 63.9152 104.22C63.9152 104.136 63.9198 103.949 63.9292 103.66C63.9385 103.371 64.0132 103.011 64.1532 102.582C64.3025 102.153 64.5265 101.789 64.8252 101.49C65.3105 100.995 65.8845 100.748 66.5472 100.748C66.6312 100.748 66.7852 100.757 67.0092 100.776C67.5225 100.832 68.0545 101.145 68.6052 101.714C69.1838 102.311 69.4732 103.025 69.4732 103.856C69.4732 104.099 69.4125 104.309 69.2912 104.486C68.9832 104.635 68.6425 104.719 68.2692 104.738L67.5132 104.752C66.6265 104.752 65.7818 104.71 64.9792 104.626C65.0165 104.934 65.0725 105.219 65.1472 105.48C65.2218 105.732 65.3805 105.989 65.6232 106.25C66.0712 106.745 66.6498 106.992 67.3592 106.992C67.4058 106.992 67.5412 106.987 67.7652 106.978C67.9985 106.969 68.2972 106.824 68.6612 106.544C68.7638 106.451 68.8992 106.404 69.0672 106.404H69.1512L69.4172 106.544C69.5105 106.675 69.5572 106.824 69.5572 106.992V107.076L69.4172 107.342C68.9038 107.837 68.1572 108.084 67.1772 108.084ZM66.7712 103.688C67.3312 103.688 67.8772 103.669 68.4092 103.632C68.3345 103.38 68.2505 103.151 68.1572 102.946C68.0732 102.731 67.9425 102.535 67.7652 102.358C67.3825 102.003 66.9858 101.826 66.5752 101.826C66.5005 101.826 66.3698 101.84 66.1832 101.868C66.0058 101.896 65.8192 102.027 65.6232 102.26C65.4272 102.484 65.2778 102.708 65.1752 102.932C65.0818 103.147 65.0352 103.38 65.0352 103.632C65.6325 103.669 66.2112 103.688 66.7712 103.688ZM66.6312 100.58C66.4632 100.561 66.2765 100.473 66.0712 100.314C65.8752 100.146 65.5952 99.8847 65.2312 99.53C65.0725 99.3713 64.9932 99.194 64.9932 98.998C64.9932 98.9233 65.0445 98.788 65.1472 98.592C65.2685 98.4987 65.4132 98.452 65.5812 98.452H65.6652L65.9312 98.592L66.7152 99.334C67.0792 99.0447 67.4898 98.8533 67.9472 98.76L68.2272 98.9C68.3112 99.0027 68.3532 99.1333 68.3532 99.292C68.3532 99.348 68.3112 99.474 68.2272 99.67C67.9658 99.8193 67.7092 99.9827 67.4572 100.16C67.2052 100.328 66.9298 100.468 66.6312 100.58ZM77.2292 107.888H77.1452L76.8792 107.748C76.7392 107.468 76.6692 107.155 76.6692 106.81L76.6832 106.586C76.7018 105.951 76.7112 105.447 76.7112 105.074C76.7112 104.803 76.7018 104.561 76.6832 104.346C76.6645 104.131 76.5665 103.898 76.3892 103.646C76.1278 103.301 75.6798 103.128 75.0452 103.128C74.9332 103.128 74.7698 103.137 74.5552 103.156C74.2098 103.203 73.8225 103.548 73.3932 104.192C72.9732 104.827 72.7212 105.368 72.6372 105.816C72.5998 106.04 72.5812 106.357 72.5812 106.768V107.202L72.4552 107.482C72.3432 107.575 72.2032 107.622 72.0352 107.622H71.9512L71.6852 107.482C71.4985 106.633 71.3632 105.779 71.2792 104.92C71.2045 104.052 71.1065 103.179 70.9852 102.302C71.0318 101.957 71.2325 101.784 71.5872 101.784H71.6852L71.9512 101.91C72.0632 102.227 72.1238 102.568 72.1332 102.932C72.1425 103.296 72.1752 103.641 72.2312 103.968C72.4832 103.66 72.7352 103.343 72.9872 103.016C73.4818 102.363 74.1632 102.036 75.0312 102.036C75.1338 102.036 75.2785 102.045 75.4652 102.064C75.6612 102.073 75.8945 102.125 76.1652 102.218C76.4358 102.311 76.7205 102.507 77.0192 102.806C77.3272 103.105 77.5185 103.375 77.5932 103.618C77.6772 103.851 77.7332 104.127 77.7612 104.444C77.7798 104.631 77.7892 105.069 77.7892 105.76L77.7752 107.482L77.6492 107.748C77.5372 107.841 77.3972 107.888 77.2292 107.888ZM88.4066 108.14C88.2573 108.121 88.122 108.056 88.0006 107.944L85.9146 105.802L84.4166 107.72C84.286 107.832 84.1366 107.888 83.9686 107.888H83.8986L83.6186 107.748C83.5253 107.645 83.4786 107.51 83.4786 107.342V107.258C83.7026 106.857 83.9733 106.474 84.2906 106.11C84.608 105.737 84.902 105.359 85.1726 104.976C84.8646 104.5 84.5286 104.061 84.1646 103.66C83.8006 103.249 83.544 102.797 83.3946 102.302L83.5346 102.022C83.656 101.929 83.8053 101.882 83.9826 101.882H84.0246L84.3046 102.022C84.6126 102.498 84.8973 102.89 85.1586 103.198C85.4293 103.506 85.6906 103.809 85.9426 104.108C86.3253 103.707 86.6613 103.287 86.9506 102.848C87.2493 102.409 87.5433 101.971 87.8326 101.532C87.9446 101.439 88.08 101.392 88.2386 101.392H88.3226L88.6026 101.532C88.696 101.644 88.7426 101.779 88.7426 101.938L88.7286 102.078C87.9446 103.245 87.254 104.183 86.6566 104.892L88.8126 107.174C88.906 107.305 88.9526 107.454 88.9526 107.622V107.706L88.8126 107.972C88.682 108.065 88.5466 108.121 88.4066 108.14ZM92.8281 107.958H92.7441L92.4781 107.818C92.3848 107.678 92.3288 107.524 92.3101 107.356L92.3941 101.798C92.4408 101.453 92.6274 101.28 92.9541 101.28H93.0521L93.3181 101.406L93.4581 101.686L93.4301 106.95L93.4441 107.118C93.4441 107.379 93.3741 107.613 93.2341 107.818C93.1314 107.911 92.9961 107.958 92.8281 107.958ZM92.7721 100.706L92.2821 100.398C92.0488 100.165 91.8388 99.8987 91.6521 99.6V99.39C91.7174 99.2967 91.8154 99.2453 91.9461 99.236L92.0441 99.25L92.8001 100.104C93.1454 99.824 93.5328 99.6233 93.9621 99.502C94.0648 99.5673 94.1161 99.6513 94.1161 99.754L94.1021 99.852C93.8781 100.029 93.4348 100.314 92.7721 100.706ZM102.838 107.972H102.754L102.474 107.832C102.371 107.692 102.32 107.519 102.32 107.314C102.404 106.997 102.451 106.665 102.46 106.32C102.469 105.975 102.474 105.629 102.474 105.284C102.474 104.547 102.231 103.991 101.746 103.618C101.597 103.515 101.429 103.464 101.242 103.464C100.747 103.464 100.253 103.758 99.7581 104.346C99.0581 105.195 98.7081 105.895 98.7081 106.446V106.684C98.7081 106.992 98.6614 107.277 98.5681 107.538C98.4561 107.631 98.3208 107.678 98.1621 107.678H98.0781L97.7981 107.538C97.6581 107.174 97.5601 106.787 97.5041 106.376L97.1961 99.362C97.2428 98.998 97.4434 98.816 97.7981 98.816H97.8821L98.1621 98.956C98.2461 99.0587 98.2881 99.1893 98.2881 99.348L98.5121 104.192C99.3801 102.988 100.248 102.386 101.116 102.386C101.303 102.386 101.573 102.423 101.928 102.498C102.292 102.573 102.6 102.787 102.852 103.142C103.113 103.487 103.291 103.819 103.384 104.136C103.477 104.453 103.524 104.915 103.524 105.522C103.524 105.578 103.519 105.797 103.51 106.18C103.501 106.563 103.487 106.885 103.468 107.146C103.449 107.407 103.375 107.636 103.244 107.832C103.132 107.925 102.997 107.972 102.838 107.972ZM107.953 107.86C107.571 107.86 107.193 107.771 106.819 107.594C106.521 107.463 106.203 107.202 105.867 106.81C105.531 106.409 105.331 105.877 105.265 105.214C105.181 104.523 105.139 103.884 105.139 103.296C105.139 102.792 105.214 102.358 105.363 101.994C105.475 101.901 105.611 101.854 105.769 101.854C105.844 101.854 105.984 101.901 106.189 101.994C106.283 102.134 106.329 102.293 106.329 102.47V102.512C106.245 102.773 106.203 103.086 106.203 103.45C106.203 103.805 106.236 104.346 106.301 105.074C106.329 105.447 106.437 105.76 106.623 106.012C106.987 106.516 107.454 106.768 108.023 106.768C108.117 106.768 108.294 106.754 108.555 106.726C108.817 106.698 109.129 106.432 109.493 105.928C109.857 105.424 110.086 104.794 110.179 104.038C110.273 103.282 110.371 102.531 110.473 101.784C110.585 101.691 110.725 101.644 110.893 101.644H110.977L111.243 101.784C111.393 102.671 111.491 103.581 111.537 104.514C111.593 105.447 111.775 106.353 112.083 107.23L111.943 107.51C111.822 107.603 111.682 107.65 111.523 107.65H111.439L111.159 107.51C110.926 107.109 110.781 106.675 110.725 106.208C110.557 106.488 110.301 106.787 109.955 107.104C109.414 107.608 108.747 107.86 107.953 107.86ZM118.198 108.602C117.815 108.565 117.474 108.42 117.176 108.168L116.994 107.832C116.676 107.981 116.368 108.056 116.07 108.056C115.388 108.056 114.828 107.823 114.39 107.356C114.035 106.992 113.858 106.46 113.858 105.76C113.858 104.668 114.096 103.889 114.572 103.422C114.908 103.086 115.29 102.918 115.72 102.918C116.009 102.918 116.396 102.965 116.882 103.058C116.77 102.629 116.592 102.311 116.35 102.106C116.144 101.938 115.944 101.854 115.748 101.854L115.636 101.868C115.533 101.933 115.412 101.966 115.272 101.966C115.216 101.966 115.09 101.924 114.894 101.84C114.8 101.709 114.744 101.56 114.726 101.392C114.744 101.252 114.8 101.126 114.894 101.014C115.183 100.846 115.482 100.762 115.79 100.762C115.874 100.762 116.032 100.781 116.266 100.818C116.508 100.855 116.84 101.121 117.26 101.616C117.68 102.111 117.922 102.601 117.988 103.086C118.025 103.403 118.044 103.711 118.044 104.01C118.044 104.523 117.988 105.121 117.876 105.802C117.829 106.073 117.806 106.315 117.806 106.53C117.806 106.614 117.815 106.749 117.834 106.936C117.852 107.113 117.95 107.249 118.128 107.342C118.314 107.435 118.529 107.538 118.772 107.65C118.856 107.771 118.898 107.911 118.898 108.07V108.168L118.772 108.434C118.604 108.546 118.412 108.602 118.198 108.602ZM115.846 106.978C116.032 106.978 116.322 106.899 116.714 106.74C116.732 106.329 116.774 105.933 116.84 105.55C116.905 105.167 116.956 104.775 116.994 104.374C116.583 104.15 116.238 104.038 115.958 104.038C115.855 104.038 115.701 104.08 115.496 104.164C115.132 104.313 114.95 104.808 114.95 105.648C114.95 105.779 114.959 105.937 114.978 106.124C114.996 106.311 115.113 106.511 115.328 106.726C115.486 106.894 115.659 106.978 115.846 106.978ZM117.148 99.502C116.858 99.4273 116.135 99.3807 114.978 99.362C114.632 99.3153 114.46 99.124 114.46 98.788V98.704L114.6 98.424L114.866 98.298C116.004 98.3167 116.69 98.3353 116.924 98.354C117.166 98.3633 117.381 98.4333 117.568 98.564C117.652 98.676 117.694 98.8113 117.694 98.97C117.694 99.0167 117.652 99.138 117.568 99.334C117.437 99.4273 117.297 99.4833 117.148 99.502ZM126.626 107.888H126.542L126.276 107.748C126.136 107.468 126.066 107.155 126.066 106.81L126.08 106.586C126.098 105.951 126.108 105.447 126.108 105.074C126.108 104.803 126.098 104.561 126.08 104.346C126.061 104.131 125.963 103.898 125.786 103.646C125.524 103.301 125.076 103.128 124.442 103.128C124.33 103.128 124.166 103.137 123.952 103.156C123.606 103.203 123.219 103.548 122.79 104.192C122.37 104.827 122.118 105.368 122.034 105.816C121.996 106.04 121.978 106.357 121.978 106.768V107.202L121.852 107.482C121.74 107.575 121.6 107.622 121.432 107.622H121.348L121.082 107.482C120.895 106.633 120.76 105.779 120.676 104.92C120.601 104.052 120.503 103.179 120.382 102.302C120.428 101.957 120.629 101.784 120.984 101.784H121.082L121.348 101.91C121.46 102.227 121.52 102.568 121.53 102.932C121.539 103.296 121.572 103.641 121.628 103.968C121.88 103.66 122.132 103.343 122.384 103.016C122.878 102.363 123.56 102.036 124.428 102.036C124.53 102.036 124.675 102.045 124.862 102.064C125.058 102.073 125.291 102.125 125.562 102.218C125.832 102.311 126.117 102.507 126.416 102.806C126.724 103.105 126.915 103.375 126.99 103.618C127.074 103.851 127.13 104.127 127.158 104.444C127.176 104.631 127.186 105.069 127.186 105.76L127.172 107.482L127.046 107.748C126.934 107.841 126.794 107.888 126.626 107.888ZM136.235 108.042C135.274 108.042 134.471 107.692 133.827 106.992C133.519 106.665 133.276 106.292 133.099 105.872C132.931 105.499 132.847 105.116 132.847 104.724C132.847 104.687 132.852 104.551 132.861 104.318C132.87 104.085 132.945 103.819 133.085 103.52C133.234 103.212 133.398 102.927 133.575 102.666C133.752 102.395 134.009 102.148 134.345 101.924C134.681 101.7 135.05 101.518 135.451 101.378C135.759 101.275 136.081 101.224 136.417 101.224C136.52 101.224 136.702 101.238 136.963 101.266C137.234 101.285 137.542 101.392 137.887 101.588C138.008 101.737 138.069 101.896 138.069 102.064C138.069 102.101 138.027 102.218 137.943 102.414C137.831 102.498 137.696 102.54 137.537 102.54H137.439C137.14 102.391 136.832 102.316 136.515 102.316C135.628 102.316 134.961 102.633 134.513 103.268C134.14 103.791 133.953 104.285 133.953 104.752C133.953 104.836 133.962 104.995 133.981 105.228C134.009 105.461 134.13 105.732 134.345 106.04C134.569 106.348 134.821 106.563 135.101 106.684C135.493 106.871 135.885 106.964 136.277 106.964C136.417 106.964 136.59 106.95 136.795 106.922C137.01 106.894 137.243 106.805 137.495 106.656C137.756 106.507 138.032 106.404 138.321 106.348L138.587 106.502C138.68 106.605 138.727 106.74 138.727 106.908V106.992L138.545 107.314C137.78 107.799 137.01 108.042 136.235 108.042ZM145.412 107.972H145.328L145.048 107.832C144.946 107.692 144.894 107.519 144.894 107.314C144.978 106.997 145.025 106.665 145.034 106.32C145.044 105.975 145.048 105.629 145.048 105.284C145.048 104.547 144.806 103.991 144.32 103.618C144.171 103.515 144.003 103.464 143.816 103.464C143.322 103.464 142.827 103.758 142.332 104.346C141.632 105.195 141.282 105.895 141.282 106.446V106.684C141.282 106.992 141.236 107.277 141.142 107.538C141.03 107.631 140.895 107.678 140.736 107.678H140.652L140.372 107.538C140.232 107.174 140.134 106.787 140.078 106.376L139.77 99.362C139.817 98.998 140.018 98.816 140.372 98.816H140.456L140.736 98.956C140.82 99.0587 140.862 99.1893 140.862 99.348L141.086 104.192C141.954 102.988 142.822 102.386 143.69 102.386C143.877 102.386 144.148 102.423 144.502 102.498C144.866 102.573 145.174 102.787 145.426 103.142C145.688 103.487 145.865 103.819 145.958 104.136C146.052 104.453 146.098 104.915 146.098 105.522C146.098 105.578 146.094 105.797 146.084 106.18C146.075 106.563 146.061 106.885 146.042 107.146C146.024 107.407 145.949 107.636 145.818 107.832C145.706 107.925 145.571 107.972 145.412 107.972ZM150.486 107.944H150.402L150.136 107.804C149.996 107.571 149.926 107.305 149.926 107.006L149.94 106.81C149.902 105.494 149.856 104.551 149.8 103.982C149.744 103.403 149.697 102.825 149.66 102.246L149.8 101.966C149.912 101.882 150.047 101.84 150.206 101.84C150.252 101.84 150.378 101.882 150.584 101.966C150.78 102.862 150.901 103.777 150.948 104.71C150.994 105.634 151.036 106.567 151.074 107.51L150.934 107.776C150.812 107.888 150.663 107.944 150.486 107.944ZM151.466 101.336H151.368C151.004 101.252 150.626 101.205 150.234 101.196C149.851 101.187 149.459 101.182 149.058 101.182L148.708 101.21L148.428 101.07C148.344 100.958 148.302 100.823 148.302 100.664C148.302 100.617 148.344 100.496 148.428 100.3C148.652 100.179 148.908 100.118 149.198 100.118C149.487 100.118 149.781 100.123 150.08 100.132C150.378 100.132 150.682 100.146 150.99 100.174C151.298 100.202 151.592 100.281 151.872 100.412C151.956 100.543 151.998 100.687 151.998 100.846C151.998 100.893 151.956 101.014 151.872 101.21C151.76 101.294 151.624 101.336 151.466 101.336ZM159.807 109.834H159.723L159.443 109.694C159.35 109.582 159.294 109.456 159.275 109.316C159.135 105.62 159.065 103.361 159.065 102.54C159.112 102.195 159.303 102.022 159.639 102.022H159.723L159.989 102.162C160.082 102.274 160.129 102.4 160.129 102.54C160.81 102.195 161.501 102.022 162.201 102.022C162.266 102.022 162.402 102.027 162.607 102.036C162.812 102.045 163.032 102.106 163.265 102.218C163.508 102.33 163.825 102.582 164.217 102.974C164.609 103.366 164.847 103.763 164.931 104.164C164.978 104.407 165.001 104.654 165.001 104.906C165.001 105.055 164.982 105.265 164.945 105.536C164.908 105.807 164.833 106.101 164.721 106.418C164.609 106.726 164.348 107.081 163.937 107.482C163.526 107.883 163.092 108.117 162.635 108.182C162.504 108.201 162.35 108.21 162.173 108.21C161.716 108.21 161.104 108.149 160.339 108.028V109.428L160.213 109.694C160.101 109.787 159.966 109.834 159.807 109.834ZM161.795 107.202C161.916 107.202 162.098 107.193 162.341 107.174C162.593 107.155 162.901 107.015 163.265 106.754C163.414 106.623 163.54 106.446 163.643 106.222C163.839 105.793 163.937 105.377 163.937 104.976C163.937 104.845 163.923 104.682 163.895 104.486C163.83 104.122 163.578 103.758 163.139 103.394C162.887 103.189 162.546 103.086 162.117 103.086C161.986 103.086 161.823 103.1 161.627 103.128C161.431 103.156 161.212 103.231 160.969 103.352C160.736 103.473 160.465 103.651 160.157 103.884C160.176 104.472 160.208 104.99 160.255 105.438C160.302 105.877 160.339 106.325 160.367 106.782C160.712 107.062 161.188 107.202 161.795 107.202ZM168.766 100.496C168.43 100.459 168.244 100.267 168.206 99.922C168.318 99.5767 168.528 99.2873 168.836 99.054C169.116 98.7553 169.415 98.4893 169.732 98.256C169.872 98.1347 170.012 98.074 170.152 98.074C170.292 98.074 170.423 98.1347 170.544 98.256C170.675 98.368 170.74 98.4893 170.74 98.62C170.74 98.7413 170.684 98.8627 170.572 98.984L169.676 99.81C169.434 100.137 169.13 100.365 168.766 100.496ZM169.074 108.196C168.841 108.196 168.668 108.033 168.556 107.706C168.51 106.782 168.486 105.867 168.486 104.962V104.514L168.472 101.546C168.659 101.359 168.836 101.266 169.004 101.266C169.107 101.266 169.214 101.294 169.326 101.35C169.494 101.509 169.578 101.705 169.578 101.938V101.98C169.606 102.755 169.62 103.529 169.62 104.304V107.944C169.415 108.112 169.233 108.196 169.074 108.196ZM179.686 107.888H179.602L179.336 107.748C179.196 107.468 179.126 107.155 179.126 106.81L179.14 106.586C179.159 105.951 179.168 105.447 179.168 105.074C179.168 104.803 179.159 104.561 179.14 104.346C179.122 104.131 179.024 103.898 178.846 103.646C178.585 103.301 178.137 103.128 177.502 103.128C177.39 103.128 177.227 103.137 177.012 103.156C176.667 103.203 176.28 103.548 175.85 104.192C175.43 104.827 175.178 105.368 175.094 105.816C175.057 106.04 175.038 106.357 175.038 106.768V107.202L174.912 107.482C174.8 107.575 174.66 107.622 174.492 107.622H174.408L174.142 107.482C173.956 106.633 173.82 105.779 173.736 104.92C173.662 104.052 173.564 103.179 173.442 102.302C173.489 101.957 173.69 101.784 174.044 101.784H174.142L174.408 101.91C174.52 102.227 174.581 102.568 174.59 102.932C174.6 103.296 174.632 103.641 174.688 103.968C174.94 103.66 175.192 103.343 175.444 103.016C175.939 102.363 176.62 102.036 177.488 102.036C177.591 102.036 177.736 102.045 177.922 102.064C178.118 102.073 178.352 102.125 178.622 102.218C178.893 102.311 179.178 102.507 179.476 102.806C179.784 103.105 179.976 103.375 180.05 103.618C180.134 103.851 180.19 104.127 180.218 104.444C180.237 104.631 180.246 105.069 180.246 105.76L180.232 107.482L180.106 107.748C179.994 107.841 179.854 107.888 179.686 107.888ZM184.104 109.862C183.703 109.862 183.358 109.708 183.068 109.4C182.695 109.027 182.508 108.588 182.508 108.084C182.508 108.019 182.518 107.902 182.536 107.734C182.555 107.566 182.718 107.342 183.026 107.062C183.344 106.782 183.726 106.581 184.174 106.46C184.632 106.329 185.108 106.236 185.602 106.18L185.546 105.228C185.182 105.555 184.851 105.769 184.552 105.872C184.263 105.975 183.95 106.026 183.614 106.026C183.586 106.026 183.474 106.026 183.278 106.026C183.082 106.017 182.849 105.881 182.578 105.62C182.028 105.097 181.752 104.439 181.752 103.646C181.752 103.599 181.757 103.459 181.766 103.226C181.776 102.993 181.86 102.694 182.018 102.33C182.186 101.966 182.42 101.644 182.718 101.364C183.241 100.888 183.834 100.65 184.496 100.65C184.59 100.65 184.744 100.664 184.958 100.692C185.173 100.72 185.439 100.893 185.756 101.21C186.074 101.518 186.288 101.765 186.4 101.952C186.522 102.139 186.582 102.344 186.582 102.568V102.68C186.564 103.081 186.554 103.459 186.554 103.814C186.554 104.327 186.592 105.088 186.666 106.096L187.688 106.04L187.968 106.18C188.062 106.311 188.108 106.455 188.108 106.614V106.698L187.968 106.978C187.651 107.118 187.306 107.188 186.932 107.188L186.666 107.174C186.666 107.538 186.606 107.879 186.484 108.196C186.372 108.523 186.158 108.845 185.84 109.162C185.532 109.479 185.224 109.68 184.916 109.764C184.664 109.829 184.394 109.862 184.104 109.862ZM184.3 108.812C184.543 108.812 184.739 108.751 184.888 108.63C185.15 108.481 185.388 108.023 185.602 107.258C185.201 107.314 184.818 107.393 184.454 107.496C184.09 107.589 183.848 107.762 183.726 108.014C183.67 108.117 183.642 108.21 183.642 108.294C183.642 108.415 183.703 108.523 183.824 108.616C183.974 108.747 184.132 108.812 184.3 108.812ZM183.782 104.906C183.988 104.906 184.212 104.85 184.454 104.738C185.07 104.243 185.378 103.441 185.378 102.33C185.136 101.957 184.809 101.77 184.398 101.77C184.333 101.77 184.221 101.784 184.062 101.812C183.904 101.831 183.708 101.947 183.474 102.162C183.036 102.554 182.816 103.063 182.816 103.688C182.816 103.819 182.835 104.015 182.872 104.276C182.919 104.528 183.096 104.715 183.404 104.836C183.526 104.883 183.652 104.906 183.782 104.906ZM191.35 109.862C190.949 109.862 190.604 109.708 190.314 109.4C189.941 109.027 189.754 108.588 189.754 108.084C189.754 108.019 189.764 107.902 189.782 107.734C189.801 107.566 189.964 107.342 190.272 107.062C190.59 106.782 190.972 106.581 191.42 106.46C191.878 106.329 192.354 106.236 192.848 106.18L192.792 105.228C192.428 105.555 192.097 105.769 191.798 105.872C191.509 105.975 191.196 106.026 190.86 106.026C190.832 106.026 190.72 106.026 190.524 106.026C190.328 106.017 190.095 105.881 189.824 105.62C189.274 105.097 188.998 104.439 188.998 103.646C188.998 103.599 189.003 103.459 189.012 103.226C189.022 102.993 189.106 102.694 189.264 102.33C189.432 101.966 189.666 101.644 189.964 101.364C190.487 100.888 191.08 100.65 191.742 100.65C191.836 100.65 191.99 100.664 192.204 100.692C192.419 100.72 192.685 100.893 193.002 101.21C193.32 101.518 193.534 101.765 193.646 101.952C193.768 102.139 193.828 102.344 193.828 102.568V102.68C193.81 103.081 193.8 103.459 193.8 103.814C193.8 104.327 193.838 105.088 193.912 106.096L194.934 106.04L195.214 106.18C195.308 106.311 195.354 106.455 195.354 106.614V106.698L195.214 106.978C194.897 107.118 194.552 107.188 194.178 107.188L193.912 107.174C193.912 107.538 193.852 107.879 193.73 108.196C193.618 108.523 193.404 108.845 193.086 109.162C192.778 109.479 192.47 109.68 192.162 109.764C191.91 109.829 191.64 109.862 191.35 109.862ZM191.546 108.812C191.789 108.812 191.985 108.751 192.134 108.63C192.396 108.481 192.634 108.023 192.848 107.258C192.447 107.314 192.064 107.393 191.7 107.496C191.336 107.589 191.094 107.762 190.972 108.014C190.916 108.117 190.888 108.21 190.888 108.294C190.888 108.415 190.949 108.523 191.07 108.616C191.22 108.747 191.378 108.812 191.546 108.812ZM191.028 104.906C191.234 104.906 191.458 104.85 191.7 104.738C192.316 104.243 192.624 103.441 192.624 102.33C192.382 101.957 192.055 101.77 191.644 101.77C191.579 101.77 191.467 101.784 191.308 101.812C191.15 101.831 190.954 101.947 190.72 102.162C190.282 102.554 190.062 103.063 190.062 103.688C190.062 103.819 190.081 104.015 190.118 104.276C190.165 104.528 190.342 104.715 190.65 104.836C190.772 104.883 190.898 104.906 191.028 104.906ZM199.241 107.86C198.858 107.86 198.48 107.771 198.107 107.594C197.808 107.463 197.491 107.202 197.155 106.81C196.819 106.409 196.618 105.877 196.553 105.214C196.469 104.523 196.427 103.884 196.427 103.296C196.427 102.792 196.501 102.358 196.651 101.994C196.763 101.901 196.898 101.854 197.057 101.854C197.131 101.854 197.271 101.901 197.477 101.994C197.57 102.134 197.617 102.293 197.617 102.47V102.512C197.533 102.773 197.491 103.086 197.491 103.45C197.491 103.805 197.523 104.346 197.589 105.074C197.617 105.447 197.724 105.76 197.911 106.012C198.275 106.516 198.741 106.768 199.311 106.768C199.404 106.768 199.581 106.754 199.843 106.726C200.104 106.698 200.417 106.432 200.781 105.928C201.145 105.424 201.373 104.794 201.467 104.038C201.56 103.282 201.658 102.531 201.761 101.784C201.873 101.691 202.013 101.644 202.181 101.644H202.265L202.531 101.784C202.68 102.671 202.778 103.581 202.825 104.514C202.881 105.447 203.063 106.353 203.371 107.23L203.231 107.51C203.109 107.603 202.969 107.65 202.811 107.65H202.727L202.447 107.51C202.213 107.109 202.069 106.675 202.013 106.208C201.845 106.488 201.588 106.787 201.243 107.104C200.701 107.608 200.034 107.86 199.241 107.86ZM207.385 107.944C207.077 107.925 206.792 107.841 206.531 107.692C205.868 107.319 205.457 106.763 205.299 106.026C205.205 105.587 205.159 105.046 205.159 104.402C205.159 103.823 205.238 103.347 205.397 102.974C205.555 102.601 205.756 102.302 205.999 102.078C206.251 101.845 206.493 101.7 206.727 101.644C206.895 101.597 207.077 101.574 207.273 101.574C207.338 101.574 207.455 101.583 207.623 101.602C207.791 101.611 208.043 101.803 208.379 102.176C208.715 102.549 208.943 102.993 209.065 103.506C209.195 104.01 209.261 104.575 209.261 105.2C209.261 105.835 209.2 106.301 209.079 106.6C208.967 106.889 208.738 107.183 208.393 107.482C208.047 107.771 207.711 107.925 207.385 107.944ZM207.245 106.81L207.609 106.782C208.066 106.465 208.295 105.928 208.295 105.172C208.295 104.911 208.22 104.481 208.071 103.884C207.856 103.072 207.553 102.666 207.161 102.666C206.862 102.666 206.596 102.927 206.363 103.45C206.223 103.777 206.153 104.192 206.153 104.696C206.153 104.817 206.162 104.943 206.181 105.074C206.199 105.195 206.241 105.41 206.307 105.718C206.372 106.026 206.507 106.287 206.713 106.502C206.927 106.707 207.105 106.81 207.245 106.81ZM207.147 101.084C206.885 100.935 206.647 100.771 206.433 100.594L205.999 100.174C205.961 100.109 205.943 100.034 205.943 99.95C205.943 99.8847 205.961 99.824 205.999 99.768L206.293 99.712C206.563 100.001 206.89 100.258 207.273 100.482L208.057 99.824H208.281C208.374 99.8987 208.421 99.9873 208.421 100.09L208.407 100.202C207.903 100.687 207.483 100.981 207.147 101.084Z" fill="black"/>
<path d="M45.896 77.76C47.192 78.936 48.704 80.616 49.328 81.768L51.656 80.136C50.936 79.008 49.376 77.4 48.056 76.272L45.896 77.76ZM30.176 82.44V85.176H51.848V82.44H30.176ZM29.72 89.232L30.44 92.136C33.536 91.512 37.712 90.672 41.6 89.856L41.384 87.24C37.184 88.008 32.624 88.8 29.72 89.232ZM34.736 78.576V94.752C34.736 95.16 34.592 95.28 34.16 95.28C33.728 95.304 32.336 95.304 30.968 95.232C31.4 96.048 31.88 97.344 32 98.16C33.968 98.16 35.384 98.064 36.344 97.608C37.328 97.152 37.64 96.36 37.64 94.8V78.576H34.736ZM39.656 75.768C37.184 76.608 33.44 77.352 30.056 77.808C30.392 78.456 30.752 79.536 30.896 80.208C34.376 79.824 38.48 79.176 41.6 78.216L39.656 75.768ZM42.008 75.816C42.08 86.592 43.952 98.256 48.92 98.256C51.104 98.256 52.016 97.2 52.472 92.952C51.704 92.64 50.72 91.968 50.12 91.296C49.976 94.152 49.712 95.328 49.208 95.328C47.024 95.328 44.864 85.488 45.032 75.816H42.008ZM48.536 85.968C46.4 89.928 42.488 93.192 38.384 95.064C39.104 95.712 39.896 96.672 40.328 97.392C44.672 95.088 48.584 91.512 51.08 87.048L48.536 85.968Z" fill="#034F97"/>
<path d="M65.744 76.728V96.288L68.672 95.616V76.728H65.744ZM67.04 76.728V79.248H74.792V85.584H67.04V88.08H77.72V76.728H67.04ZM67.04 81.192V83.592H76.016V81.192H67.04ZM63.656 95.088L64.376 97.8C66.752 97.416 69.872 96.888 72.776 96.36L72.584 93.792C69.344 94.296 65.936 94.8 63.656 95.088ZM72.944 86.976L70.448 87.408C71.6 92.52 73.568 96.312 77.624 98.16C78.032 97.368 78.896 96.216 79.52 95.664C75.872 94.272 73.856 91.032 72.944 86.976ZM76.928 88.584C75.896 89.664 74.144 91.056 72.896 91.848L74.72 93.36C75.992 92.592 77.672 91.368 78.968 90.168L76.928 88.584ZM62.48 80.712C61.04 83.088 58.616 85.488 56.408 87.024C56.864 87.648 57.656 89.136 57.92 89.76C60.44 87.816 63.272 84.696 65.048 81.744L62.48 80.712ZM61.736 75.648C60.704 77.256 58.544 79.248 56.648 80.424C57.08 81.024 57.776 82.2 58.064 82.848C60.368 81.384 62.84 78.984 64.472 76.752L61.736 75.648ZM60.032 86.28V98.16H62.84V83.688L62.696 83.616L60.032 86.28ZM88.76 95.592V97.512H101.432V95.592H88.76ZM87.008 92.184V98.16H89.84V94.104H100.256V98.16H103.232V92.184H87.008ZM84.776 77.04V79.104H105.224V77.04H84.776ZM86.432 80.064V82.056H103.808V80.064H86.432ZM83.936 89.136V91.32H105.992V89.136H83.936ZM93.44 75.576V80.808H96.368V75.576H93.44ZM88.928 87.912C89.312 88.56 89.696 89.52 89.792 90.144L92.552 89.376C92.384 88.752 92 87.888 91.544 87.24L88.928 87.912ZM98.216 87.216C98.024 87.888 97.616 88.824 97.256 89.52L99.752 90.048C100.208 89.448 100.808 88.632 101.384 87.672L98.216 87.216ZM90.2 84.672H99.848V85.872H90.2V84.672ZM87.464 82.872V87.648H102.752V82.872H87.464ZM110.936 78.192V80.736H118.568V78.192H110.936ZM117.8 78.192V78.792C116.936 85.488 114.152 91.536 110.336 94.296C110.96 94.776 111.824 95.784 112.256 96.456C116.576 92.952 119.432 86.88 120.488 78.696L118.736 78.096L118.256 78.192H117.8ZM110.864 83.376C113.432 86.88 116.624 91.632 117.968 94.632L120.2 92.688C118.808 89.76 115.448 85.2 112.88 81.792L110.864 83.376ZM123.32 79.008V81.6H130.832V79.008H123.32ZM122.48 75.672C122.096 79.272 121.304 82.704 119.72 84.792C120.344 85.152 121.52 85.992 122 86.448C123.704 84 124.688 80.16 125.192 76.008L122.48 75.672ZM130.28 79.008V79.416C129.992 81.24 129.392 83.496 128.888 84.888L131.12 85.632C131.84 84.048 132.584 81.624 133.088 79.416L131.144 78.912L130.712 79.008H130.28ZM127.088 84.696L124.736 85.008C125.696 91.2 127.424 95.856 131.696 98.16C132.104 97.416 132.944 96.288 133.568 95.736C129.656 93.96 127.88 89.784 127.088 84.696ZM124.664 82.728V84.528C124.664 87.768 124.136 92.76 118.424 96.168C119.072 96.624 120.032 97.56 120.464 98.184C126.752 94.272 127.376 88.416 127.376 84.576V82.728H124.664ZM140.024 77.712V80.472H143.072V89.328H140.024V92.112H145.688V77.712H140.024ZM138.56 77.712V94.056H141.176V77.712H138.56ZM148.712 78.984V81.672H159.776V78.984H148.712ZM148.232 84.144V86.808H156.464V84.144H148.232ZM149.48 75.624C148.64 78.552 147.08 81.408 145.184 83.184C145.832 83.616 146.984 84.552 147.512 85.08C149.456 82.992 151.256 79.704 152.336 76.296L149.48 75.624ZM156.032 84.144C147.032 91.368 146.6 92.976 146.6 94.536C146.6 96.504 148.04 97.776 151.256 97.776H156.368C159.056 97.776 160.16 96.888 160.472 92.52C159.632 92.352 158.696 92.016 157.904 91.584C157.808 94.584 157.472 94.944 156.536 94.944H151.184C150.176 94.944 149.576 94.728 149.576 94.128C149.576 93.336 150.176 92.184 158.672 85.656C158.84 85.488 158.984 85.296 159.056 85.152L157.136 84.048L156.488 84.144H156.032ZM165.056 89.616V92.28H186.944V89.616H165.056ZM166.976 82.128V84.744H185.144V82.128H166.976ZM174.464 83.352V98.28H177.392V83.352H174.464ZM170.312 84.624C169.448 85.992 167.936 87.384 166.376 88.248C167.024 88.68 168.128 89.568 168.656 90.072C170.24 88.992 171.992 87.216 173.072 85.44L170.312 84.624ZM178.688 85.8C180.128 86.952 181.856 88.656 182.648 89.736L185.144 88.344C184.28 87.192 182.456 85.608 181.04 84.528L178.688 85.8ZM165.344 77.16V79.728H186.704V77.16H165.344ZM170.312 75.624V81.504H173.168V75.624H170.312ZM178.736 75.624V81.504H181.592V75.624H178.736ZM192.272 88.248V90.888H213.752V88.248H192.272ZM201.512 77.712V98.16H204.584V77.712H201.512ZM200.72 89.544C198.824 91.872 195.104 94.056 191.552 95.136C192.176 95.736 193.064 96.816 193.496 97.512C197.144 96.168 200.864 93.576 203.12 90.576L200.72 89.544ZM205.112 89.376L202.856 90.384C205.16 93.312 208.952 95.976 212.504 97.368C212.936 96.648 213.824 95.52 214.448 94.944C210.92 93.864 207.08 91.68 205.112 89.376ZM197.624 82.872H208.376V84.432H197.624V82.872ZM197.624 79.128H208.376V80.64H197.624V79.128ZM194.624 76.728V86.832H211.544V76.728H194.624Z" fill="black"/>
<path d="M40.8575 130H38.0575V115.82H40.8575V130Z" fill="#034F97"/>
<path d="M51.4941 130H48.8341V115.52H51.4941V130ZM57.0019 130H54.3419V120.16H57.0019V130ZM54.0219 116.94C54.0219 116.487 54.1819 116.1 54.5019 115.78C54.8219 115.447 55.2085 115.28 55.6619 115.28C56.1152 115.28 56.5019 115.44 56.8219 115.76C57.1419 116.08 57.3019 116.473 57.3019 116.94C57.3019 117.38 57.1419 117.76 56.8219 118.08C56.5019 118.4 56.1152 118.56 55.6619 118.56C55.2085 118.56 54.8219 118.4 54.5019 118.08C54.1819 117.76 54.0219 117.38 54.0219 116.94ZM69.3897 120.16L65.4497 124.3L69.4697 130H66.2097L63.6097 126.24L62.5097 127.4V130H59.8497V115.52H62.5097V123.82L65.9097 120.16H69.3897ZM72.5123 123.96H76.9123C76.8857 123.413 76.6857 122.953 76.3123 122.58C75.9523 122.207 75.419 122.02 74.7123 122.02C74.0723 122.02 73.5523 122.22 73.1523 122.62C72.7523 123.02 72.539 123.467 72.5123 123.96ZM77.1723 126.52L79.3923 127.18C79.1257 128.087 78.599 128.833 77.8123 129.42C77.039 130.007 76.0723 130.3 74.9123 130.3C73.499 130.3 72.299 129.827 71.3123 128.88C70.3257 127.92 69.8323 126.64 69.8323 125.04C69.8323 123.52 70.3123 122.28 71.2723 121.32C72.2323 120.347 73.3657 119.86 74.6723 119.86C76.1923 119.86 77.379 120.313 78.2323 121.22C79.099 122.127 79.5323 123.373 79.5323 124.96C79.5323 125.067 79.5257 125.187 79.5123 125.32C79.5123 125.453 79.5123 125.56 79.5123 125.64L79.4923 125.78H72.4523C72.479 126.42 72.7323 126.953 73.2123 127.38C73.6923 127.807 74.2657 128.02 74.9323 128.02C76.0657 128.02 76.8123 127.52 77.1723 126.52ZM88.5084 123.96H92.9084C92.8818 123.413 92.6818 122.953 92.3084 122.58C91.9484 122.207 91.4151 122.02 90.7084 122.02C90.0684 122.02 89.5484 122.22 89.1484 122.62C88.7484 123.02 88.5351 123.467 88.5084 123.96ZM93.1684 126.52L95.3884 127.18C95.1218 128.087 94.5951 128.833 93.8084 129.42C93.0351 130.007 92.0684 130.3 90.9084 130.3C89.4951 130.3 88.2951 129.827 87.3084 128.88C86.3218 127.92 85.8284 126.64 85.8284 125.04C85.8284 123.52 86.3084 122.28 87.2684 121.32C88.2284 120.347 89.3618 119.86 90.6684 119.86C92.1884 119.86 93.3751 120.313 94.2284 121.22C95.0951 122.127 95.5284 123.373 95.5284 124.96C95.5284 125.067 95.5218 125.187 95.5084 125.32C95.5084 125.453 95.5084 125.56 95.5084 125.64L95.4884 125.78H88.4484C88.4751 126.42 88.7284 126.953 89.2084 127.38C89.6884 127.807 90.2618 128.02 90.9284 128.02C92.0618 128.02 92.8084 127.52 93.1684 126.52ZM97.0231 127.32C97.0231 126.48 97.2965 125.807 97.8431 125.3C98.3898 124.793 99.0965 124.473 99.9631 124.34L102.383 123.98C102.876 123.913 103.123 123.68 103.123 123.28C103.123 122.907 102.976 122.6 102.683 122.36C102.403 122.12 101.996 122 101.463 122C100.903 122 100.456 122.153 100.123 122.46C99.8031 122.767 99.6231 123.147 99.5831 123.6L97.2231 123.1C97.3165 122.247 97.7365 121.493 98.4831 120.84C99.2298 120.187 100.216 119.86 101.443 119.86C102.91 119.86 103.99 120.213 104.683 120.92C105.376 121.613 105.723 122.507 105.723 123.6V128.44C105.723 129.027 105.763 129.547 105.843 130H103.403C103.336 129.707 103.303 129.313 103.303 128.82C102.676 129.793 101.71 130.28 100.403 130.28C99.3898 130.28 98.5698 129.987 97.9431 129.4C97.3298 128.813 97.0231 128.12 97.0231 127.32ZM100.963 128.3C101.59 128.3 102.103 128.127 102.503 127.78C102.916 127.42 103.123 126.833 103.123 126.02V125.58L100.903 125.92C100.09 126.04 99.6831 126.453 99.6831 127.16C99.6831 127.48 99.7965 127.753 100.023 127.98C100.25 128.193 100.563 128.3 100.963 128.3ZM111.626 117.22V120.16H113.606V122.52H111.626V126.64C111.626 127.053 111.719 127.347 111.906 127.52C112.092 127.693 112.386 127.78 112.786 127.78C113.146 127.78 113.419 127.753 113.606 127.7V129.9C113.219 130.06 112.719 130.14 112.106 130.14C111.146 130.14 110.386 129.873 109.826 129.34C109.266 128.793 108.986 128.047 108.986 127.1V122.52H107.206V120.16H107.706C108.199 120.16 108.572 120.02 108.826 119.74C109.092 119.447 109.226 119.067 109.226 118.6V117.22H111.626ZM118.525 130H115.865V120.16H118.525V130ZM115.545 116.94C115.545 116.487 115.705 116.1 116.025 115.78C116.345 115.447 116.732 115.28 117.185 115.28C117.639 115.28 118.025 115.44 118.345 115.76C118.665 116.08 118.825 116.473 118.825 116.94C118.825 117.38 118.665 117.76 118.345 118.08C118.025 118.4 117.639 118.56 117.185 118.56C116.732 118.56 116.345 118.4 116.025 118.08C115.705 117.76 115.545 117.38 115.545 116.94ZM124.033 124.34V130H121.373V120.16H123.953V121.38C124.233 120.9 124.633 120.533 125.153 120.28C125.673 120.027 126.22 119.9 126.793 119.9C127.953 119.9 128.833 120.267 129.433 121C130.046 121.72 130.353 122.653 130.353 123.8V130H127.693V124.26C127.693 123.673 127.54 123.2 127.233 122.84C126.94 122.48 126.486 122.3 125.873 122.3C125.313 122.3 124.866 122.493 124.533 122.88C124.2 123.267 124.033 123.753 124.033 124.34ZM132.353 130.54L134.753 129.9C134.846 130.447 135.099 130.893 135.513 131.24C135.926 131.587 136.439 131.76 137.053 131.76C138.799 131.76 139.673 130.847 139.673 129.02V128.3C139.446 128.66 139.099 128.96 138.633 129.2C138.166 129.44 137.599 129.56 136.933 129.56C135.626 129.56 134.533 129.107 133.653 128.2C132.786 127.293 132.353 126.153 132.353 124.78C132.353 123.447 132.786 122.313 133.653 121.38C134.519 120.447 135.613 119.98 136.933 119.98C137.653 119.98 138.253 120.113 138.733 120.38C139.213 120.633 139.546 120.947 139.733 121.32V120.16H142.293V128.94C142.293 130.42 141.866 131.647 141.013 132.62C140.159 133.607 138.866 134.1 137.133 134.1C135.839 134.1 134.753 133.753 133.873 133.06C133.006 132.367 132.499 131.527 132.353 130.54ZM137.393 127.28C138.073 127.28 138.626 127.053 139.053 126.6C139.493 126.147 139.713 125.54 139.713 124.78C139.713 124.033 139.486 123.433 139.033 122.98C138.593 122.527 138.046 122.3 137.393 122.3C136.713 122.3 136.146 122.527 135.693 122.98C135.253 123.433 135.033 124.033 135.033 124.78C135.033 125.54 135.253 126.147 135.693 126.6C136.133 127.053 136.699 127.28 137.393 127.28ZM149.328 127.32C149.328 126.48 149.601 125.807 150.148 125.3C150.694 124.793 151.401 124.473 152.268 124.34L154.688 123.98C155.181 123.913 155.428 123.68 155.428 123.28C155.428 122.907 155.281 122.6 154.988 122.36C154.708 122.12 154.301 122 153.768 122C153.208 122 152.761 122.153 152.428 122.46C152.108 122.767 151.928 123.147 151.888 123.6L149.528 123.1C149.621 122.247 150.041 121.493 150.788 120.84C151.534 120.187 152.521 119.86 153.748 119.86C155.214 119.86 156.294 120.213 156.988 120.92C157.681 121.613 158.028 122.507 158.028 123.6V128.44C158.028 129.027 158.068 129.547 158.148 130H155.708C155.641 129.707 155.608 129.313 155.608 128.82C154.981 129.793 154.014 130.28 152.708 130.28C151.694 130.28 150.874 129.987 150.248 129.4C149.634 128.813 149.328 128.12 149.328 127.32ZM153.268 128.3C153.894 128.3 154.408 128.127 154.808 127.78C155.221 127.42 155.428 126.833 155.428 126.02V125.58L153.208 125.92C152.394 126.04 151.988 126.453 151.988 127.16C151.988 127.48 152.101 127.753 152.328 127.98C152.554 128.193 152.868 128.3 153.268 128.3ZM163.369 133.8H160.709V120.16H163.289V121.36C163.529 120.96 163.916 120.627 164.449 120.36C164.982 120.08 165.602 119.94 166.309 119.94C167.709 119.94 168.816 120.42 169.629 121.38C170.442 122.327 170.849 123.553 170.849 125.06C170.849 126.567 170.416 127.807 169.549 128.78C168.696 129.753 167.582 130.24 166.209 130.24C164.902 130.24 163.956 129.84 163.369 129.04V133.8ZM167.529 127.12C167.996 126.613 168.229 125.933 168.229 125.08C168.229 124.227 167.996 123.553 167.529 123.06C167.076 122.567 166.496 122.32 165.789 122.32C165.082 122.32 164.496 122.573 164.029 123.08C163.562 123.573 163.329 124.24 163.329 125.08C163.329 125.92 163.562 126.593 164.029 127.1C164.496 127.607 165.082 127.86 165.789 127.86C166.496 127.86 167.076 127.613 167.529 127.12ZM175.615 133.8H172.955V120.16H175.535V121.36C175.775 120.96 176.162 120.627 176.695 120.36C177.228 120.08 177.848 119.94 178.555 119.94C179.955 119.94 181.062 120.42 181.875 121.38C182.688 122.327 183.095 123.553 183.095 125.06C183.095 126.567 182.662 127.807 181.795 128.78C180.942 129.753 179.828 130.24 178.455 130.24C177.148 130.24 176.202 129.84 175.615 129.04V133.8ZM179.775 127.12C180.242 126.613 180.475 125.933 180.475 125.08C180.475 124.227 180.242 123.553 179.775 123.06C179.322 122.567 178.742 122.32 178.035 122.32C177.328 122.32 176.742 122.573 176.275 123.08C175.808 123.573 175.575 124.24 175.575 125.08C175.575 125.92 175.808 126.593 176.275 127.1C176.742 127.607 177.328 127.86 178.035 127.86C178.742 127.86 179.322 127.613 179.775 127.12ZM187.861 130H185.201V115.52H187.861V130ZM192.649 123.96H197.049C197.022 123.413 196.822 122.953 196.449 122.58C196.089 122.207 195.556 122.02 194.849 122.02C194.209 122.02 193.689 122.22 193.289 122.62C192.889 123.02 192.676 123.467 192.649 123.96ZM197.309 126.52L199.529 127.18C199.262 128.087 198.736 128.833 197.949 129.42C197.176 130.007 196.209 130.3 195.049 130.3C193.636 130.3 192.436 129.827 191.449 128.88C190.462 127.92 189.969 126.64 189.969 125.04C189.969 123.52 190.449 122.28 191.409 121.32C192.369 120.347 193.502 119.86 194.809 119.86C196.329 119.86 197.516 120.313 198.369 121.22C199.236 122.127 199.669 123.373 199.669 124.96C199.669 125.067 199.662 125.187 199.649 125.32C199.649 125.453 199.649 125.56 199.649 125.64L199.629 125.78H192.589C192.616 126.42 192.869 126.953 193.349 127.38C193.829 127.807 194.402 128.02 195.069 128.02C196.202 128.02 196.949 127.52 197.309 126.52ZM200.924 127.26L203.204 126.76C203.23 127.187 203.397 127.547 203.704 127.84C204.024 128.12 204.457 128.26 205.004 128.26C205.417 128.26 205.737 128.167 205.964 127.98C206.19 127.793 206.304 127.56 206.304 127.28C206.304 126.787 205.95 126.467 205.244 126.32L203.944 126.02C203.024 125.82 202.33 125.46 201.864 124.94C201.41 124.42 201.184 123.8 201.184 123.08C201.184 122.187 201.53 121.427 202.224 120.8C202.93 120.173 203.81 119.86 204.864 119.86C205.53 119.86 206.117 119.96 206.624 120.16C207.13 120.347 207.524 120.593 207.804 120.9C208.084 121.193 208.297 121.493 208.444 121.8C208.59 122.107 208.684 122.407 208.724 122.7L206.504 123.2C206.45 122.853 206.29 122.547 206.024 122.28C205.77 122.013 205.39 121.88 204.884 121.88C204.537 121.88 204.237 121.973 203.984 122.16C203.744 122.347 203.624 122.58 203.624 122.86C203.624 123.34 203.924 123.633 204.524 123.74L205.924 124.04C206.87 124.24 207.59 124.607 208.084 125.14C208.59 125.673 208.844 126.313 208.844 127.06C208.844 127.94 208.51 128.7 207.844 129.34C207.177 129.98 206.237 130.3 205.024 130.3C204.33 130.3 203.71 130.2 203.164 130C202.617 129.787 202.19 129.52 201.884 129.2C201.59 128.867 201.364 128.54 201.204 128.22C201.057 127.887 200.964 127.567 200.924 127.26Z" fill="black"/>
<path d="M28.3099 50H24.0259V31.208L16.0699 50H12.3259L4.44192 31.28V50H0.229922V24.476H5.98992L14.2699 43.952L22.4419 24.476H28.3099V50ZM36.9226 39.308H45.5266C45.4786 38.204 45.0826 37.28 44.3386 36.536C43.6186 35.792 42.5746 35.42 41.2066 35.42C39.9586 35.42 38.9506 35.816 38.1826 36.608C37.4146 37.376 36.9946 38.276 36.9226 39.308ZM45.9946 43.88L49.5226 44.996C49.0186 46.604 48.0706 47.936 46.6786 48.992C45.3106 50.024 43.6186 50.54 41.6026 50.54C39.1066 50.54 36.9826 49.688 35.2306 47.984C33.5026 46.28 32.6386 44 32.6386 41.144C32.6386 38.456 33.4786 36.248 35.1586 34.52C36.8626 32.792 38.8666 31.928 41.1706 31.928C43.8586 31.928 45.9586 32.756 47.4706 34.412C48.9826 36.044 49.7386 38.252 49.7386 41.036C49.7386 41.78 49.7026 42.224 49.6306 42.368H36.8146C36.8626 43.688 37.3426 44.78 38.2546 45.644C39.1906 46.508 40.3066 46.94 41.6026 46.94C43.8586 46.94 45.3226 45.92 45.9946 43.88ZM52.6493 45.248C52.6493 43.76 53.1293 42.572 54.0893 41.684C55.0733 40.772 56.3573 40.196 57.9413 39.956L62.4413 39.272C63.3053 39.152 63.7373 38.732 63.7373 38.012C63.7373 37.22 63.4613 36.584 62.9093 36.104C62.3573 35.6 61.5293 35.348 60.4253 35.348C59.3693 35.348 58.5293 35.648 57.9053 36.248C57.2813 36.824 56.9213 37.58 56.8253 38.516L53.0093 37.652C53.1773 36.068 53.9333 34.724 55.2773 33.62C56.6213 32.492 58.3253 31.928 60.3893 31.928C62.9333 31.928 64.8053 32.54 66.0053 33.764C67.2293 34.988 67.8413 36.56 67.8413 38.48V47.192C67.8413 48.344 67.9133 49.28 68.0573 50H64.1693C64.0493 49.64 63.9893 48.896 63.9893 47.768C62.8373 49.616 61.0373 50.54 58.5893 50.54C56.8133 50.54 55.3733 50.024 54.2693 48.992C53.1893 47.936 52.6493 46.688 52.6493 45.248ZM59.3813 47.264C60.6773 47.264 61.7213 46.916 62.5133 46.22C63.3293 45.5 63.7373 44.336 63.7373 42.728V41.936L59.1653 42.62C57.6053 42.884 56.8253 43.676 56.8253 44.996C56.8253 45.62 57.0533 46.16 57.5093 46.616C57.9653 47.048 58.5893 47.264 59.3813 47.264ZM77.0655 39.884V50H72.8895V32.468H76.9575V34.808C77.5095 33.848 78.2415 33.14 79.1535 32.684C80.0895 32.204 81.0855 31.964 82.1415 31.964C84.2055 31.964 85.7775 32.612 86.8575 33.908C87.9375 35.204 88.4775 36.872 88.4775 38.912V50H84.3015V39.632C84.3015 38.456 84.0135 37.52 83.4375 36.824C82.8615 36.104 81.9495 35.744 80.7015 35.744C79.5495 35.744 78.6495 36.14 78.0015 36.932C77.3775 37.7 77.0655 38.684 77.0655 39.884ZM97.7013 50H93.5613V32.468H97.7013V50ZM93.7053 28.22C93.1773 27.692 92.9133 27.056 92.9133 26.312C92.9133 25.568 93.1773 24.932 93.7053 24.404C94.2333 23.852 94.8693 23.576 95.6133 23.576C96.3813 23.576 97.0293 23.84 97.5573 24.368C98.0853 24.896 98.3493 25.544 98.3493 26.312C98.3493 27.056 98.0853 27.692 97.5573 28.22C97.0293 28.748 96.3813 29.012 95.6133 29.012C94.8693 29.012 94.2333 28.748 93.7053 28.22ZM107.265 39.884V50H103.089V32.468H107.157V34.808C107.709 33.848 108.441 33.14 109.353 32.684C110.289 32.204 111.285 31.964 112.341 31.964C114.405 31.964 115.977 32.612 117.057 33.908C118.137 35.204 118.677 36.872 118.677 38.912V50H114.501V39.632C114.501 38.456 114.213 37.52 113.637 36.824C113.061 36.104 112.149 35.744 110.901 35.744C109.749 35.744 108.849 36.14 108.201 36.932C107.577 37.7 107.265 38.684 107.265 39.884ZM122.501 50.972L126.353 49.964C126.497 51.068 126.965 51.968 127.757 52.664C128.573 53.384 129.569 53.744 130.745 53.744C134.057 53.744 135.713 51.992 135.713 48.488V46.652C135.305 47.396 134.657 48.008 133.769 48.488C132.881 48.968 131.837 49.208 130.637 49.208C128.285 49.208 126.341 48.404 124.805 46.796C123.293 45.188 122.537 43.148 122.537 40.676C122.537 38.3 123.293 36.284 124.805 34.628C126.317 32.972 128.261 32.144 130.637 32.144C133.205 32.144 134.933 32.996 135.821 34.7V32.468H139.853V48.344C139.853 50.936 139.121 53.084 137.657 54.788C136.193 56.516 133.925 57.38 130.853 57.38C128.597 57.38 126.701 56.768 125.165 55.544C123.629 54.32 122.741 52.796 122.501 50.972ZM131.321 45.644C132.665 45.644 133.745 45.2 134.561 44.312C135.401 43.4 135.821 42.188 135.821 40.676C135.821 39.188 135.401 38 134.561 37.112C133.721 36.2 132.641 35.744 131.321 35.744C129.977 35.744 128.873 36.2 128.009 37.112C127.169 38 126.749 39.188 126.749 40.676C126.749 42.188 127.169 43.4 128.009 44.312C128.849 45.2 129.953 45.644 131.321 45.644ZM144.816 47.336C144.816 46.52 145.092 45.836 145.644 45.284C146.22 44.708 146.916 44.42 147.732 44.42C148.524 44.42 149.208 44.708 149.784 45.284C150.36 45.836 150.648 46.52 150.648 47.336C150.648 48.128 150.36 48.812 149.784 49.388C149.208 49.94 148.524 50.216 147.732 50.216C146.916 50.216 146.22 49.94 145.644 49.388C145.092 48.812 144.816 48.128 144.816 47.336ZM144.78 35.168C144.78 34.352 145.056 33.668 145.608 33.116C146.184 32.54 146.88 32.252 147.696 32.252C148.488 32.252 149.172 32.54 149.748 33.116C150.324 33.668 150.612 34.352 150.612 35.168C150.612 35.96 150.324 36.644 149.748 37.22C149.172 37.772 148.488 38.048 147.696 38.048C146.88 38.048 146.184 37.772 145.608 37.22C145.056 36.644 144.78 35.96 144.78 35.168ZM193.193 50H188.909V31.208L180.953 50H177.209L169.325 31.28V50H165.113V24.476H170.873L179.153 43.952L187.325 24.476H193.193V50ZM201.805 39.308H210.409C210.361 38.204 209.965 37.28 209.221 36.536C208.501 35.792 207.457 35.42 206.089 35.42C204.841 35.42 203.833 35.816 203.065 36.608C202.297 37.376 201.877 38.276 201.805 39.308ZM210.877 43.88L214.405 44.996C213.901 46.604 212.953 47.936 211.561 48.992C210.193 50.024 208.501 50.54 206.485 50.54C203.989 50.54 201.865 49.688 200.113 47.984C198.385 46.28 197.521 44 197.521 41.144C197.521 38.456 198.361 36.248 200.041 34.52C201.745 32.792 203.749 31.928 206.053 31.928C208.741 31.928 210.841 32.756 212.353 34.412C213.865 36.044 214.621 38.252 214.621 41.036C214.621 41.78 214.585 42.224 214.513 42.368H201.697C201.745 43.688 202.225 44.78 203.137 45.644C204.073 46.508 205.189 46.94 206.485 46.94C208.741 46.94 210.205 45.92 210.877 43.88ZM217.795 47.372C217.795 46.604 218.083 45.956 218.659 45.428C219.235 44.9 219.943 44.636 220.783 44.636C221.743 44.636 222.523 44.984 223.123 45.68C223.747 46.376 224.059 47.3 224.059 48.452C224.059 50.732 223.447 52.496 222.223 53.744C221.023 55.016 219.679 55.748 218.191 55.94V53.816C219.031 53.624 219.763 53.156 220.387 52.412C221.035 51.668 221.371 50.84 221.395 49.928C221.155 50.048 220.867 50.108 220.531 50.108C219.739 50.108 219.079 49.856 218.551 49.352C218.047 48.848 217.795 48.188 217.795 47.372ZM242.77 50H238.378V24.476H242.77V50Z" fill="black"/>
<path d="M120.324 20.52C120.047 20.52 119.77 20.328 119.492 19.944C118.447 18.3653 117.594 16.68 116.932 14.888C116.292 13.0747 115.599 11.272 114.852 9.48C114.191 11.1867 113.487 12.8933 112.74 14.6C112.015 16.3067 111.14 17.96 110.116 19.56C109.732 20.008 109.37 20.232 109.028 20.232C108.623 20.232 108.25 19.944 107.908 19.368C105.647 13.3093 103.706 7.57067 102.084 2.152C102.127 1.832 102.244 1.53333 102.436 1.256C102.692 1.04267 103.002 0.935999 103.364 0.935999H103.556L104.196 1.256C106.714 8.59467 108.367 13.5227 109.156 16.04C110.202 14.248 111.066 12.4133 111.748 10.536C112.452 8.65867 113.092 6.76 113.668 4.84C113.967 4.328 114.298 4.072 114.66 4.072C115.023 4.072 115.418 4.37067 115.844 4.968C116.484 6.84533 117.178 8.712 117.924 10.568C118.671 12.424 119.418 14.2907 120.164 16.168C122.682 11.368 124.57 6.248 125.828 0.807999C126.063 0.594666 126.372 0.487999 126.756 0.487999H126.948L127.556 0.807999C127.791 1.14933 127.908 1.52267 127.908 1.928L127.876 2.28C127.215 5.37333 126.298 8.38133 125.124 11.304C123.951 14.2053 122.65 17.0853 121.22 19.944C120.922 20.328 120.623 20.52 120.324 20.52ZM136.652 20.872C135.948 20.8293 135.297 20.6373 134.7 20.296C133.185 19.4427 132.246 18.1733 131.884 16.488C131.67 15.4853 131.564 14.248 131.564 12.776C131.564 11.4533 131.745 10.3653 132.108 9.512C132.47 8.65867 132.929 7.976 133.484 7.464C134.06 6.93067 134.614 6.6 135.148 6.472C135.532 6.36533 135.948 6.312 136.396 6.312C136.545 6.312 136.812 6.33333 137.196 6.376C137.58 6.39733 138.156 6.83467 138.924 7.688C139.692 8.54133 140.214 9.55467 140.492 10.728C140.79 11.88 140.94 13.1707 140.94 14.6C140.94 16.0507 140.801 17.1173 140.524 17.8C140.268 18.4613 139.745 19.1333 138.956 19.816C138.166 20.4773 137.398 20.8293 136.652 20.872ZM136.332 18.28L137.164 18.216C138.209 17.4907 138.732 16.264 138.732 14.536C138.732 13.9387 138.561 12.9573 138.22 11.592C137.729 9.736 137.036 8.808 136.14 8.808C135.457 8.808 134.849 9.40533 134.316 10.6C133.996 11.3467 133.836 12.296 133.836 13.448C133.836 13.7253 133.857 14.0133 133.9 14.312C133.942 14.5893 134.038 15.08 134.188 15.784C134.337 16.488 134.646 17.0853 135.116 17.576C135.606 18.0453 136.012 18.28 136.332 18.28ZM136.108 5.192C135.51 4.85067 134.966 4.47733 134.476 4.072L133.484 3.112C133.398 2.96267 133.356 2.792 133.356 2.6C133.356 2.45067 133.398 2.312 133.484 2.184L134.156 2.056C134.774 2.71733 135.521 3.304 136.396 3.816L138.188 2.312H138.7C138.913 2.48267 139.02 2.68533 139.02 2.92L138.988 3.176C137.836 4.28533 136.876 4.95733 136.108 5.192Z" fill="black"/>
</svg>
