<svg width="36" height="26" viewBox="0 0 36 26" fill="none" xmlns="http://www.w3.org/2000/svg">
<path d="M21.3933 1.76055L20.1881 2.37037H15.8119L14.6067 1.76055C13.629 1.26066 12.55 1.00023 11.4559 1H10.1699C7.73789 1 5.40553 1.98321 3.68584 3.73334C1.96615 5.48347 1 7.85716 1 10.3322V19.9248C1.00009 20.9856 1.34286 22.0171 1.97547 22.8602C2.60807 23.7033 3.4954 24.3114 4.50096 24.5909L4.93186 24.7074C5.93155 24.9858 6.99328 24.9235 7.9549 24.53C8.91653 24.1366 9.72523 23.4336 10.2574 22.5285L13.6843 16.7182C13.9234 16.3158 14.2602 15.9829 14.6623 15.7513C15.0643 15.5197 15.5182 15.3972 15.9802 15.3958H20.0198C20.4818 15.3972 20.9357 15.5197 21.3377 15.7513C21.7398 15.9829 22.0766 16.3158 22.3157 16.7182L25.7426 22.5285C26.2748 23.4336 27.0835 24.1366 28.0451 24.53C29.0067 24.9235 30.0684 24.9858 31.0681 24.7074L31.499 24.5909C32.5046 24.3114 33.3919 23.7033 34.0245 22.8602C34.6571 22.0171 34.9999 20.9856 35 19.9248V10.3322C35 9.1067 34.7628 7.89316 34.302 6.76093C33.8412 5.62869 33.1657 4.59992 32.3142 3.73334C31.4627 2.86676 30.4518 2.17937 29.3393 1.71038C28.2267 1.24139 27.0343 1 25.8301 1H24.5441C23.45 1.00023 22.371 1.26066 21.3933 1.76055Z" stroke="#716E79" stroke-width="2" stroke-linecap="round" stroke-linejoin="round"/>
<path d="M28.2673 7.16664C28.2673 7.53008 28.1254 7.87864 27.8729 8.13563C27.6204 8.39263 27.2779 8.53701 26.9208 8.53701C26.5636 8.53701 26.2212 8.39263 25.9686 8.13563C25.7161 7.87864 25.5742 7.53008 25.5742 7.16664C25.5742 6.80319 25.7161 6.45463 25.9686 6.19764C26.2212 5.94064 26.5636 5.79626 26.9208 5.79626C27.2779 5.79626 27.6204 5.94064 27.8729 6.19764C28.1254 6.45463 28.2673 6.80319 28.2673 7.16664ZM26.9208 11.2777C26.5636 11.2777 26.2212 11.4221 25.9686 11.6791C25.7161 11.9361 25.5742 12.2847 25.5742 12.6481C25.5742 13.0116 25.7161 13.3601 25.9686 13.6171C26.2212 13.8741 26.5636 14.0185 26.9208 14.0185C27.2779 14.0185 27.6204 13.8741 27.8729 13.6171C28.1254 13.3601 28.2673 13.0116 28.2673 12.6481C28.2673 12.2847 28.1254 11.9361 27.8729 11.6791C27.6204 11.4221 27.2779 11.2777 26.9208 11.2777ZM30.9604 9.90738C30.9604 9.54393 30.8185 9.19537 30.566 8.93838C30.3134 8.68138 29.971 8.53701 29.6138 8.53701C29.2567 8.53701 28.9142 8.68138 28.6617 8.93838C28.4092 9.19537 28.2673 9.54393 28.2673 9.90738C28.2673 10.2708 28.4092 10.6194 28.6617 10.8764C28.9142 11.1334 29.2567 11.2777 29.6138 11.2777C29.971 11.2777 30.3134 11.1334 30.566 10.8764C30.8185 10.6194 30.9604 10.2708 30.9604 9.90738ZM25.5742 9.90738C25.5742 9.54393 25.4323 9.19537 25.1798 8.93838C24.9273 8.68138 24.5848 8.53701 24.2277 8.53701C23.8706 8.53701 23.5281 8.68138 23.2756 8.93838C23.0231 9.19537 22.8812 9.54393 22.8812 9.90738C22.8812 10.2708 23.0231 10.6194 23.2756 10.8764C23.5281 11.1334 23.8706 11.2777 24.2277 11.2777C24.5848 11.2777 24.9273 11.1334 25.1798 10.8764C25.4323 10.6194 25.5742 10.2708 25.5742 9.90738Z" fill="#716E79"/>
<path d="M10.7624 9.90743H5.37622M8.06929 7.16669V12.6482V7.16669Z" stroke="#716E79" stroke-width="2" stroke-linecap="round" stroke-linejoin="round"/>
</svg>
