<svg width="36" height="26" viewBox="0 0 36 26" fill="none" xmlns="http://www.w3.org/2000/svg">
<path d="M21.3933 1.76055L20.1881 2.37037H15.8119L14.6067 1.76055C13.629 1.26066 12.55 1.00023 11.4559 1H10.1699C7.73789 1 5.40553 1.98321 3.68584 3.73334C1.96615 5.48347 1 7.85716 1 10.3322V19.9248C1.00009 20.9856 1.34286 22.0171 1.97547 22.8602C2.60807 23.7033 3.4954 24.3114 4.50096 24.5909L4.93186 24.7074C5.93155 24.9858 6.99328 24.9235 7.9549 24.53C8.91653 24.1366 9.72523 23.4336 10.2574 22.5285L13.6843 16.7182C13.9234 16.3158 14.2602 15.9829 14.6623 15.7513C15.0643 15.5197 15.5182 15.3972 15.9802 15.3958H20.0198C20.4818 15.3972 20.9357 15.5197 21.3377 15.7513C21.7398 15.9829 22.0766 16.3158 22.3157 16.7182L25.7426 22.5285C26.2748 23.4336 27.0835 24.1366 28.0451 24.53C29.0067 24.9235 30.0684 24.9858 31.0681 24.7074L31.499 24.5909C32.5046 24.3114 33.3919 23.7033 34.0245 22.8602C34.6571 22.0171 34.9999 20.9856 35 19.9248V10.3322C35 9.1067 34.7628 7.89316 34.302 6.76093C33.8412 5.62869 33.1657 4.59992 32.3142 3.73334C31.4627 2.86676 30.4518 2.17937 29.3393 1.71038C28.2267 1.24139 27.0343 1 25.8301 1H24.5441C23.45 1.00023 22.371 1.26066 21.3933 1.76055Z" fill="#5F4D89" stroke="#5F4D89" stroke-width="2" stroke-linecap="round" stroke-linejoin="round"/>
<path d="M28.2672 7.16676C28.2672 7.5302 28.1254 7.87876 27.8728 8.13576C27.6203 8.39275 27.2778 8.53713 26.9207 8.53713C26.5636 8.53713 26.2211 8.39275 25.9686 8.13576C25.7161 7.87876 25.5742 7.5302 25.5742 7.16676C25.5742 6.80331 25.7161 6.45475 25.9686 6.19776C26.2211 5.94076 26.5636 5.79639 26.9207 5.79639C27.2778 5.79639 27.6203 5.94076 27.8728 6.19776C28.1254 6.45475 28.2672 6.80331 28.2672 7.16676ZM26.9207 11.2779C26.5636 11.2779 26.2211 11.4222 25.9686 11.6792C25.7161 11.9362 25.5742 12.2848 25.5742 12.6482C25.5742 13.0117 25.7161 13.3602 25.9686 13.6172C26.2211 13.8742 26.5636 14.0186 26.9207 14.0186C27.2778 14.0186 27.6203 13.8742 27.8728 13.6172C28.1254 13.3602 28.2672 13.0117 28.2672 12.6482C28.2672 12.2848 28.1254 11.9362 27.8728 11.6792C27.6203 11.4222 27.2778 11.2779 26.9207 11.2779ZM30.9603 9.9075C30.9603 9.54405 30.8184 9.19549 30.5659 8.9385C30.3134 8.68151 29.9709 8.53713 29.6138 8.53713C29.2567 8.53713 28.9142 8.68151 28.6617 8.9385C28.4091 9.19549 28.2672 9.54405 28.2672 9.9075C28.2672 10.2709 28.4091 10.6195 28.6617 10.8765C28.9142 11.1335 29.2567 11.2779 29.6138 11.2779C29.9709 11.2779 30.3134 11.1335 30.5659 10.8765C30.8184 10.6195 30.9603 10.2709 30.9603 9.9075ZM25.5742 9.9075C25.5742 9.54405 25.4323 9.19549 25.1798 8.9385C24.9272 8.68151 24.5848 8.53713 24.2276 8.53713C23.8705 8.53713 23.528 8.68151 23.2755 8.9385C23.023 9.19549 22.8811 9.54405 22.8811 9.9075C22.8811 10.2709 23.023 10.6195 23.2755 10.8765C23.528 11.1335 23.8705 11.2779 24.2276 11.2779C24.5848 11.2779 24.9272 11.1335 25.1798 10.8765C25.4323 10.6195 25.5742 10.2709 25.5742 9.9075Z" fill="white"/>
<path d="M8.06929 7.1665V12.648V7.1665ZM10.7624 9.90725H5.37622Z" fill="white"/>
<path d="M10.7624 9.90725H5.37622M8.06929 7.1665V12.648V7.1665Z" stroke="white" stroke-width="2" stroke-linecap="round" stroke-linejoin="round"/>
</svg>
