<svg width="39" height="39" viewBox="0 0 39 39" fill="none" xmlns="http://www.w3.org/2000/svg">
<path d="M32.5 31.5V16.75C32.5 16.4352 32.3518 16.1389 32.1 15.95L20.1 6.95C19.7444 6.68333 19.2556 6.68333 18.9 6.95L6.9 15.95C6.64819 16.1389 6.5 16.4352 6.5 16.75V31.5C6.5 32.0523 6.94772 32.5 7.5 32.5H15.25C15.8023 32.5 16.25 32.0523 16.25 31.5V25.375C16.25 24.8227 16.6977 24.375 17.25 24.375H21.75C22.3023 24.375 22.75 24.8227 22.75 25.375V31.5C22.75 32.0523 23.1977 32.5 23.75 32.5H31.5C32.0523 32.5 32.5 32.0523 32.5 31.5Z" fill="#5F4D89" stroke="#5F4D89" stroke-width="2" stroke-linecap="round" stroke-linejoin="round"/>
</svg>
