<svg width="37" height="37" viewBox="0 0 37 37" fill="none" xmlns="http://www.w3.org/2000/svg">
<path d="M30.8334 29.8333V15.9166C30.8334 15.6019 30.6852 15.3055 30.4334 15.1166L19.1 6.61663C18.7445 6.34996 18.2556 6.34996 17.9 6.61663L6.56669 15.1166C6.31488 15.3055 6.16669 15.6019 6.16669 15.9166V29.8333C6.16669 30.3856 6.6144 30.8333 7.16669 30.8333H14.4167C14.969 30.8333 15.4167 30.3856 15.4167 29.8333V24.125C15.4167 23.5727 15.8644 23.125 16.4167 23.125H20.5834C21.1356 23.125 21.5834 23.5727 21.5834 24.125V29.8333C21.5834 30.3856 22.0311 30.8333 22.5834 30.8333H29.8334C30.3856 30.8333 30.8334 30.3856 30.8334 29.8333Z" stroke="#716E79" stroke-width="2" stroke-linecap="round" stroke-linejoin="round"/>
</svg>
