<svg width="39" height="39" viewBox="0 0 39 39" fill="none" xmlns="http://www.w3.org/2000/svg">
<path fill-rule="evenodd" clip-rule="evenodd" d="M7.5 17.875C7.5 12.145 12.145 7.5 17.875 7.5C23.605 7.5 28.25 12.145 28.25 17.875C28.25 20.7403 27.0898 23.3326 25.2112 25.2112C23.3326 27.0898 20.7403 28.25 17.875 28.25C12.145 28.25 7.5 23.605 7.5 17.875ZM17.875 5.5C11.0405 5.5 5.5 11.0405 5.5 17.875C5.5 24.7095 11.0405 30.25 17.875 30.25C20.9319 30.25 23.7312 29.1406 25.8899 27.3041L31.7929 33.2071C32.1834 33.5976 32.8166 33.5976 33.2071 33.2071C33.5976 32.8166 33.5976 32.1834 33.2071 31.7929L27.3041 25.8899C29.1406 23.7312 30.25 20.9319 30.25 17.875C30.25 11.0405 24.7095 5.5 17.875 5.5ZM17.875 24.375C21.4649 24.375 24.375 21.4649 24.375 17.875C24.375 14.2851 21.4649 11.375 17.875 11.375C14.2851 11.375 11.375 14.2851 11.375 17.875C11.375 21.4649 14.2851 24.375 17.875 24.375Z" fill="#5F4D89"/>
</svg>
